<svg fill="#FFFFFF" xmlns="http://www.w3.org/2000/svg"  viewBox="0 0 64 64" width="64px" height="64px"><path d="M 36 0 C 34.898438 0 34 0.898438 34 2 L 34 11.820313 C 34 12.921875 34.898438 13.820313 36 13.820313 C 36.109375 13.820313 36.21875 13.808594 36.328125 13.789063 L 38.390625 13.449219 L 36.871094 16.070313 L 14.429688 16 C 13.160156 16 12.03125 16.808594 11.605469 18 L 3 18 C 1.347656 18 0 19.347656 0 21 L 0 38.71875 C 0 38.996094 0.0390625 39.273438 0.117188 39.546875 L 2.007813 46.175781 C 2.007813 46.179688 2.007813 46.179688 2.007813 46.183594 C 0.84375 46.597656 0 47.699219 0 49 L 0 55 C 0 56.648438 1.351563 58 3 58 L 8.078125 58 C 8.558594 61.390625 11.480469 64 15 64 C 18.519531 64 21.441406 61.390625 21.921875 58 L 44.078125 58 C 44.558594 61.390625 47.480469 64 51 64 C 54.519531 64 57.441406 61.390625 57.921875 58 L 61 58 C 62.648438 58 64 56.648438 64 55 L 64 49 C 64 47.6875 63.144531 46.578125 61.964844 46.171875 C 61.976563 46.117188 62 46.0625 62 46 L 62 42.175781 C 62 41.214844 61.726563 40.277344 61.203125 39.46875 L 54.019531 28.296875 C 53.097656 26.859375 51.527344 26 49.816406 26 L 48 26 L 48 24 C 48 23.445313 47.554688 23 47 23 C 46.445313 23 46 23.445313 46 24 L 46 26 L 42 26 L 42 19.199219 L 46.0625 12.171875 L 52.328125 11.128906 C 53.300781 10.960938 54 10.128906 54 9.148438 L 54 2 C 54 0.898438 53.101563 0 52 0 Z M 36 2 L 52 2 L 52 9.148438 L 47.347656 9.929688 L 47.597656 9.5 C 48 8.808594 48.109375 8 47.902344 7.21875 C 47.691406 6.449219 47.191406 5.800781 46.5 5.398438 C 46.039063 5.140625 45.53125 5 45 5 C 43.929688 5 42.941406 5.578125 42.402344 6.5 L 39.679688 11.210938 L 36 11.820313 Z M 45 7 C 45.179688 7 45.351563 7.039063 45.5 7.132813 C 45.730469 7.269531 45.902344 7.480469 45.96875 7.742188 C 46.039063 8 46 8.269531 45.871094 8.5 L 44.800781 10.347656 L 43.5 12.597656 L 41.03125 16.878906 L 39.9375 18.769531 L 26.871094 41.410156 C 26.597656 41.871094 25.96875 42.039063 25.5 41.78125 C 25.019531 41.5 24.859375 40.890625 25.128906 40.410156 L 38.019531 18.078125 L 39.171875 16.089844 L 40.9375 13.019531 L 42.238281 10.78125 L 44.128906 7.5 C 44.3125 7.191406 44.640625 7 45 7 Z M 14.429688 18 L 35.71875 18 L 23.402344 39.410156 C 22.582031 40.839844 23.070313 42.679688 24.5 43.511719 C 24.960938 43.769531 25.46875 43.910156 26 43.910156 C 27.070313 43.910156 28.058594 43.332031 28.597656 42.410156 L 40 22.660156 L 40 46 L 8.828125 46 L 14.609375 29.140625 C 14.789063 28.621094 14.507813 28.050781 13.984375 27.871094 C 13.464844 27.695313 12.894531 27.96875 12.71875 28.492188 L 6.714844 46 L 4.117188 46 L 13.480469 18.679688 C 13.621094 18.28125 14 18 14.429688 18 Z M 3 20 L 10.914063 20 L 3.109375 42.746094 L 2.039063 38.996094 C 2.011719 38.90625 2 38.8125 2 38.71875 L 2 21 C 2 20.449219 2.449219 20 3 20 Z M 15.929688 21.003906 C 15.539063 21.03125 15.1875 21.285156 15.050781 21.675781 L 14.1875 24.203125 C 14.007813 24.726563 14.285156 25.296875 14.808594 25.476563 C 14.914063 25.511719 15.027344 25.53125 15.132813 25.53125 C 15.546875 25.53125 15.9375 25.269531 16.078125 24.855469 L 16.945313 22.324219 C 17.125 21.800781 16.847656 21.234375 16.324219 21.054688 C 16.195313 21.011719 16.058594 20.996094 15.929688 21.003906 Z M 42 28 L 49.816406 28 C 50.839844 28 51.785156 28.515625 52.339844 29.378906 L 59.523438 40.550781 C 59.835938 41.039063 60 41.601563 60 42.175781 L 60 46 L 42 46 Z M 46 30 C 44.898438 30 44 30.898438 44 32 L 44 38 C 44 39.101563 44.898438 40 46 40 L 53.195313 40 C 53.921875 40 54.59375 39.605469 54.945313 38.96875 C 55.296875 38.335938 55.277344 37.554688 54.890625 36.9375 L 51.140625 30.9375 C 50.773438 30.351563 50.140625 30 49.445313 30 Z M 46 32 L 49.445313 32 L 53.203125 38 L 46 38 Z M 45 42 C 44.445313 42 44 42.445313 44 43 C 44 43.554688 44.445313 44 45 44 L 47 44 C 47.554688 44 48 43.554688 48 43 C 48 42.445313 47.554688 42 47 42 Z M 3 48 L 61 48 C 61.550781 48 62 48.449219 62 49 L 62 55 C 62 55.550781 61.550781 56 61 56 L 57.921875 56 C 57.441406 52.609375 54.519531 50 51 50 C 47.480469 50 44.558594 52.609375 44.078125 56 L 21.921875 56 C 21.441406 52.609375 18.519531 50 15 50 C 11.480469 50 8.558594 52.609375 8.078125 56 L 3 56 C 2.449219 56 2 55.550781 2 55 L 2 54 C 2.554688 54 3 53.554688 3 53 L 3 51 C 3 50.445313 2.554688 50 2 50 L 2 49 C 2 48.449219 2.449219 48 3 48 Z M 7 50 C 6.445313 50 6 50.445313 6 51 L 6 53 C 6 53.554688 6.445313 54 7 54 C 7.554688 54 8 53.554688 8 53 L 8 51 C 8 50.445313 7.554688 50 7 50 Z M 23 50 C 22.445313 50 22 50.445313 22 51 L 22 53 C 22 53.554688 22.445313 54 23 54 C 23.554688 54 24 53.554688 24 53 L 24 51 C 24 50.445313 23.554688 50 23 50 Z M 28 50 C 27.445313 50 27 50.445313 27 51 L 27 53 C 27 53.554688 27.445313 54 28 54 C 28.554688 54 29 53.554688 29 53 L 29 51 C 29 50.445313 28.554688 50 28 50 Z M 33 50 C 32.445313 50 32 50.445313 32 51 L 32 53 C 32 53.554688 32.445313 54 33 54 C 33.554688 54 34 53.554688 34 53 L 34 51 C 34 50.445313 33.554688 50 33 50 Z M 38 50 C 37.445313 50 37 50.445313 37 51 L 37 53 C 37 53.554688 37.445313 54 38 54 C 38.554688 54 39 53.554688 39 53 L 39 51 C 39 50.445313 38.554688 50 38 50 Z M 43 50 C 42.445313 50 42 50.445313 42 51 L 42 53 C 42 53.554688 42.445313 54 43 54 C 43.554688 54 44 53.554688 44 53 L 44 51 C 44 50.445313 43.554688 50 43 50 Z M 59 50 C 58.445313 50 58 50.445313 58 51 L 58 53 C 58 53.554688 58.445313 54 59 54 C 59.554688 54 60 53.554688 60 53 L 60 51 C 60 50.445313 59.554688 50 59 50 Z M 15 52 C 17.421875 52 19.441406 53.71875 19.902344 56 C 19.96875 56.320313 20 56.660156 20 57 C 20 57.339844 19.96875 57.679688 19.902344 58 C 19.441406 60.28125 17.421875 62 15 62 C 12.578125 62 10.558594 60.28125 10.097656 58 C 10.03125 57.679688 10 57.339844 10 57 C 10 56.660156 10.03125 56.320313 10.097656 56 C 10.558594 53.71875 12.578125 52 15 52 Z M 51 52 C 53.421875 52 55.441406 53.71875 55.902344 56 C 55.96875 56.320313 56 56.660156 56 57 C 56 57.339844 55.96875 57.679688 55.902344 58 C 55.441406 60.28125 53.421875 62 51 62 C 48.578125 62 46.558594 60.28125 46.097656 58 C 46.03125 57.679688 46 57.339844 46 57 C 46 56.660156 46.03125 56.320313 46.097656 56 C 46.558594 53.71875 48.578125 52 51 52 Z M 15 55 C 13.894531 55 13 55.894531 13 57 C 13 58.105469 13.894531 59 15 59 C 16.105469 59 17 58.105469 17 57 C 17 55.894531 16.105469 55 15 55 Z M 51 55 C 49.894531 55 49 55.894531 49 57 C 49 58.105469 49.894531 59 51 59 C 52.105469 59 53 58.105469 53 57 C 53 55.894531 52.105469 55 51 55 Z"/></svg>