<svg fill="#FFFFFF" xmlns="http://www.w3.org/2000/svg"  viewBox="0 0 50 50" width="50px" height="50px"><path d="M 25.207031 0 L 28.431641 9.0859375 L 27.433594 9.4394531 A 1.0001 1.0001 0 0 0 26.826172 10.716797 L 28.009766 14.054688 C 26.229918 15.194824 24.747568 16.752495 23.699219 18.59375 L 22.931641 16.634766 A 1.0001 1.0001 0 0 0 22.164062 16.013672 L 16.560547 15.080078 L 13.800781 11.400391 A 1.0001 1.0001 0 0 0 12.933594 10.990234 A 1.0001 1.0001 0 0 0 12.199219 12.599609 L 15.199219 16.599609 A 1.0001 1.0001 0 0 0 15.835938 16.986328 L 21.275391 17.892578 L 22.568359 21.193359 C 22.198548 22.398134 21.996094 23.675676 21.996094 25 C 21.996094 25.169319 22.015035 25.334184 22.021484 25.501953 L 17.875 28.820312 L 12.447266 26.105469 A 1.0001 1.0001 0 0 0 11.375 26.21875 L 6.375 30.21875 A 1.0004882 1.0004882 0 1 0 7.625 31.78125 L 12.125 28.179688 L 17.552734 30.894531 A 1.0001 1.0001 0 0 0 18.625 30.78125 L 22.314453 27.830078 C 23.081537 31.268097 25.214099 34.189059 28.111328 36.007812 L 23.582031 38.091797 A 1.0001 1.0001 0 0 0 23 39 L 23 41.5 L 19.666016 44 L 4 44 L 4 6 L 25.214844 6 L 24.503906 4 L 3 4 C 2.448 4 2 4.448 2 5 L 2 45 C 2 45.552 2.448 46 3 46 L 42.287109 46 A 1.0001 1.0001 0 0 0 42.761719 46 L 45 46 C 45.552 46 46 45.552 46 45 L 46 35.169922 C 45.389 35.830922 44.72 36.434562 44 36.976562 L 44 44 L 42.953125 44 L 39.912109 40.523438 L 39.111328 37.320312 C 44.266186 35.593277 47.996094 30.728485 47.996094 25 C 47.996094 17.832144 42.163955 12 34.996094 12 C 34.59555 12 34.200011 12.022955 33.808594 12.058594 L 32.603516 8.6660156 A 1.0001 1.0001 0 0 0 31.691406 8 A 1.0001 1.0001 0 0 0 31.326172 8.0585938 L 30.316406 8.4160156 L 27.328125 0 L 25.207031 0 z M 30.871094 4 L 31.580078 6 L 44 6 L 44 13.023438 C 44.72 13.565437 45.389 14.169078 46 14.830078 L 46 5 C 46 4.4 45.6 4 45 4 L 30.871094 4 z M 31.052734 10.277344 L 31.810547 12.410156 C 31.114572 12.586456 30.43943 12.811972 29.792969 13.095703 L 29.044922 10.990234 L 31.052734 10.277344 z M 34.996094 14 C 41.083075 14 45.996094 18.913022 45.996094 25 C 45.996094 30.153511 42.46953 34.452962 37.695312 35.654297 A 1.0001 1.0001 0 0 0 37.626953 35.671875 C 36.782926 35.87847 35.904904 36 34.996094 36 C 33.535239 36 32.145025 35.70959 30.871094 35.195312 A 1.0001 1.0001 0 0 0 30.626953 35.097656 C 26.722058 33.410911 23.996094 29.532827 23.996094 25 C 23.996094 18.913022 28.909112 14 34.996094 14 z M 32.021484 17.667969 A 1.0001 1.0001 0 0 0 31.568359 17.771484 C 28.863701 19.055768 26.996094 21.817599 26.996094 25 A 1.0001 1.0001 0 1 0 28.996094 25 C 28.996094 22.598401 30.400439 20.539841 32.425781 19.578125 A 1.0001 1.0001 0 0 0 32.021484 17.667969 z M 30.416016 37.150391 C 31.843097 37.690345 33.382278 38 34.996094 38 C 35.737968 38 36.46165 37.924653 37.169922 37.804688 L 38.029297 41.242188 A 1.0001 1.0001 0 0 0 38.248047 41.658203 L 40.296875 44 L 23 44 L 24.599609 42.800781 A 1.0001 1.0001 0 0 0 25 42 L 25 39.640625 L 30.416016 37.150391 z"/></svg>