<svg fill="#FFFFFF" xmlns="http://www.w3.org/2000/svg"  viewBox="0 0 32 32" width="32px" height="32px"><path d="M 3 2 C 2.6533204 2 2.3329468 2.1796875 2.1503906 2.4746094 C 1.9677735 2.7695313 1.9501954 3.1376953 2.1054688 3.4472656 L 2.9414062 5.1191406 C 1.7109986 10.283203 1.7109985 16.716797 2.9414062 21.880859 L 2.1054688 23.552734 C 1.9501953 23.862305 1.9677734 24.230469 2.1503906 24.525391 C 2.3329468 24.820312 2.6533204 25 3 25 L 10.277344 25 C 10.10498 24.70459 10 24.365845 10 24 L 10 23 L 8.5 23 C 8.2236328 23 8 22.776367 8 22.5 C 8 22.223633 8.2236328 22 8.5 22 L 10 22 C 10 20.897461 10.897461 20 12 20 L 14.277344 20 C 14.10498 19.70459 14 19.365845 14 19 L 14 18 L 6 18 C 5.4476929 18 5 17.552246 5 17 L 5 10 C 5 9.4476929 5.4476929 9 6 9 L 16 9 C 16.552307 9 17 9.4476929 17 10 L 17 15 L 19.941406 15 C 20.066101 11.610535 19.780151 8.1474609 19.058594 5.1191406 L 19.894531 3.4472656 C 20.049805 3.1376953 20.032227 2.7695313 19.849609 2.4746094 C 19.667053 2.1796876 19.34668 2 19 2 L 3 2 z M 4.5 4 L 5.5 4 C 5.7763672 4 6 4.2236328 6 4.5 C 6 4.7763672 5.7763672 5 5.5 5 L 4.5 5 C 4.2236328 5 4 4.7763672 4 4.5 C 4 4.2236328 4.2236328 4 4.5 4 z M 8.5 4 L 9.5 4 C 9.7763672 4 10 4.2236328 10 4.5 C 10 4.7763672 9.7763672 5 9.5 5 L 8.5 5 C 8.2236328 5 8 4.7763672 8 4.5 C 8 4.2236328 8.2236328 4 8.5 4 z M 12.5 4 L 13.5 4 C 13.776367 4 14 4.2236328 14 4.5 C 14 4.7763672 13.776367 5 13.5 5 L 12.5 5 C 12.223633 5 12 4.7763672 12 4.5 C 12 4.2236328 12.223633 4 12.5 4 z M 16.5 4 L 17.5 4 C 17.776367 4 18 4.2236328 18 4.5 C 18 4.7763672 17.776367 5 17.5 5 L 16.5 5 C 16.223633 5 16 4.7763672 16 4.5 C 16 4.2236328 16.223633 4 16.5 4 z M 6 10 L 6 17 L 14 17 C 14 15.897461 14.897461 15 16 15 L 16 10 L 6 10 z M 16 16 C 15.447715 16 15 16.447716 15 17 L 15 19 C 15 19.552284 15.447715 20 16 20 L 21 20 C 21.552284 20 22 19.552284 22 19 L 22 17 C 22 16.447716 21.552284 16 21 16 L 16 16 z M 12 21 C 11.447715 21 11 21.447716 11 22 L 11 24 C 11 24.552284 11.447715 25 12 25 L 17 25 C 17.552284 25 18 24.552284 18 24 L 18 22 C 18 21.447716 17.552284 21 17 21 L 12 21 z M 20 21 C 19.447716 21 19 21.447716 19 22 L 19 24 C 19 24.552284 19.447716 25 20 25 L 25 25 C 25.552284 25 26 24.552284 26 24 L 26 22 C 26 21.447716 25.552284 21 25 21 L 20 21 z M 4.5 22 L 5.5 22 C 5.7763672 22 6 22.223633 6 22.5 C 6 22.776367 5.7763672 23 5.5 23 L 4.5 23 C 4.2236328 23 4 22.776367 4 22.5 C 4 22.223633 4.2236328 22 4.5 22 z M 8 26 C 7.4477153 26 7 26.447716 7 27 L 7 29 C 7 29.552284 7.4477153 30 8 30 L 13 30 C 13.552285 30 14 29.552284 14 29 L 14 27 C 14 26.447716 13.552285 26 13 26 L 8 26 z M 16 26 C 15.447715 26 15 26.447716 15 27 L 15 29 C 15 29.552284 15.447715 30 16 30 L 21 30 C 21.552284 30 22 29.552284 22 29 L 22 27 C 22 26.447716 21.552284 26 21 26 L 16 26 z M 24 26 C 23.447716 26 23 26.447716 23 27 L 23 29 C 23 29.552284 23.447716 30 24 30 L 29 30 C 29.552284 30 30 29.552284 30 29 L 30 27 C 30 26.447716 29.552284 26 29 26 L 24 26 z"/></svg>