<svg fill="#FFFFFF" xmlns="http://www.w3.org/2000/svg"  viewBox="0 0 80 80" width="80px" height="80px"><path d="M 38 5 C 36.90625 5 36 5.90625 36 7 L 36 7.539063 C 28.714844 9.308594 23.285156 15.726563 23.046875 23.484375 C 21.277344 24.253906 20 25.953125 20 28 L 20 30 L 24 30 L 24 35 L 24.015625 35 C 24.046875 35.5625 24.210938 36.058594 24.355469 36.546875 C 24.433594 36.820313 24.511719 37.074219 24.5625 37.265625 C 24.613281 37.457031 24.625 37.644531 24.625 37.5 C 24.625 38.859375 25.765625 39.921875 27.109375 39.96875 C 27.292969 43.84375 29.160156 47.265625 32 49.519531 L 32 50.542969 L 28.957031 53.171875 C 26.695313 54.160156 23.128906 55.75 20.03125 57.707031 C 18.453125 58.703125 17 59.785156 15.898438 60.972656 C 14.796875 62.160156 14 63.5 14 65 L 14 71 L 66 71 L 66 65 C 66 63.5 65.203125 62.160156 64.101563 60.972656 C 63 59.785156 61.546875 58.703125 59.96875 57.707031 C 56.871094 55.75 53.304688 54.160156 51.042969 53.171875 L 48 50.542969 L 48 49.523438 C 50.839844 47.269531 52.707031 43.847656 52.890625 39.96875 C 54.234375 39.921875 55.375 38.859375 55.375 37.5 C 55.375 37.644531 55.386719 37.457031 55.4375 37.265625 C 55.488281 37.074219 55.566406 36.820313 55.644531 36.546875 C 55.789063 36.058594 55.953125 35.5625 55.984375 35 L 56 35 L 56 30 L 60 30 L 60 28 C 60 25.953125 58.722656 24.253906 56.953125 23.484375 C 56.714844 15.726563 51.285156 9.308594 44 7.539063 L 44 7 C 44 5.90625 43.09375 5 42 5 Z M 38 7 L 42 7 L 42 9.117188 L 42.007813 9.121094 C 42.070313 9.621094 42.496094 10 43 10 C 43.347656 10 43.671875 9.816406 43.855469 9.519531 C 49.957031 11.136719 54.527344 16.488281 54.953125 23 C 54.421875 23.027344 54 23.464844 54 24 C 54 24.550781 54.449219 25 55 25 C 55.074219 25 55.148438 24.992188 55.222656 24.972656 L 55.734375 25.105469 C 57.035156 25.4375 58 26.589844 58 28 L 22 28 C 22 26.589844 22.960938 25.4375 24.261719 25.105469 L 24.777344 24.972656 C 24.851563 24.992188 24.925781 25 25 25 C 25.550781 25 26 24.550781 26 24 C 26 23.464844 25.578125 23.027344 25.046875 23 C 25.472656 16.488281 30.042969 11.136719 36.144531 9.519531 C 36.328125 9.816406 36.652344 10 37 10 C 37.503906 10 37.929688 9.621094 37.992188 9.121094 L 38 9.117188 Z M 37 12 C 36.449219 12 36 12.449219 36 13 C 36 13.550781 36.449219 14 37 14 C 37.550781 14 38 13.550781 38 13 C 38 12.449219 37.550781 12 37 12 Z M 43 12 C 42.449219 12 42 12.449219 42 13 C 42 13.550781 42.449219 14 43 14 C 43.550781 14 44 13.550781 44 13 C 44 12.449219 43.550781 12 43 12 Z M 37 16 C 36.449219 16 36 16.449219 36 17 C 36 17.550781 36.449219 18 37 18 C 37.550781 18 38 17.550781 38 17 C 38 16.449219 37.550781 16 37 16 Z M 43 16 C 42.449219 16 42 16.449219 42 17 C 42 17.550781 42.449219 18 43 18 C 43.550781 18 44 17.550781 44 17 C 44 16.449219 43.550781 16 43 16 Z M 29 23 C 28.449219 23 28 23.449219 28 24 C 28 24.550781 28.449219 25 29 25 C 29.550781 25 30 24.550781 30 24 C 30 23.449219 29.550781 23 29 23 Z M 51 23 C 50.449219 23 50 23.449219 50 24 C 50 24.550781 50.449219 25 51 25 C 51.550781 25 52 24.550781 52 24 C 52 23.449219 51.550781 23 51 23 Z M 26 30 L 27.261719 30 C 27.101563 30.636719 27.007813 31.3125 27.003906 32.03125 C 26.949219 32.023438 26.964844 32 26.875 32 C 26.570313 32 26.277344 32.058594 26 32.148438 Z M 29.332031 30 L 50.640625 30 C 50.851563 30.585938 51 31.257813 51 32 L 51 35.304688 L 52.503906 34.421875 C 52.761719 34.273438 53 34.140625 53.167969 34.054688 C 53.1875 34.042969 53.195313 34.042969 53.214844 34.03125 C 53.671875 34.078125 54 34.398438 54 34.800781 C 54 34.875 53.882813 35.460938 53.730469 35.984375 C 53.652344 36.242188 53.574219 36.503906 53.507813 36.742188 C 53.441406 36.980469 53.375 37.148438 53.375 37.5 C 53.375 37.765625 53.15625 38 52.8125 38 L 51 38 L 51 39.367188 C 51 44.789063 47.089844 49.269531 41.941406 50.1875 L 41.65625 50.234375 L 41.441406 50.433594 C 41.050781 50.789063 40.558594 51 40 51 C 39.441406 51 38.949219 50.789063 38.558594 50.433594 L 38.34375 50.234375 L 38.058594 50.1875 C 32.910156 49.269531 29 44.789063 29 39.367188 L 29 38 L 27.1875 38 C 26.84375 38 26.625 37.765625 26.625 37.5 C 26.625 37.148438 26.558594 36.980469 26.492188 36.742188 C 26.425781 36.503906 26.347656 36.242188 26.269531 35.984375 C 26.117188 35.460938 26 34.875 26 34.800781 C 26 34.398438 26.328125 34.078125 26.785156 34.03125 C 26.804688 34.042969 26.8125 34.042969 26.832031 34.054688 C 27 34.140625 27.238281 34.273438 27.496094 34.421875 L 29 35.304688 L 29 32.050781 C 29 31.289063 29.121094 30.613281 29.332031 30 Z M 52.738281 30 L 54 30 L 54 32.148438 C 53.722656 32.058594 53.429688 32 53.125 32 C 53.039063 32 53.054688 32.019531 53 32.027344 L 53 32 C 53 31.277344 52.898438 30.605469 52.738281 30 Z M 34.5 34 C 33.671875 34 33 34.671875 33 35.5 C 33 36.328125 33.671875 37 34.5 37 C 35.328125 37 36 36.328125 36 35.5 C 36 34.671875 35.328125 34 34.5 34 Z M 45.5 34 C 44.671875 34 44 34.671875 44 35.5 C 44 36.328125 44.671875 37 45.5 37 C 46.328125 37 47 36.328125 47 35.5 C 47 34.671875 46.328125 34 45.5 34 Z M 34 50.824219 C 35.066406 51.382813 36.21875 51.8125 37.441406 52.058594 C 38.148438 52.621094 39.023438 53 40 53 C 40.972656 53 41.84375 52.621094 42.546875 52.0625 C 43.773438 51.820313 44.929688 51.390625 46 50.828125 L 46 52 C 46 52.359375 45.742188 52.914063 45.175781 53.519531 C 44.609375 54.128906 43.792969 54.746094 42.957031 55.28125 C 41.460938 56.246094 40.238281 56.769531 39.945313 56.898438 C 39.660156 56.8125 38.457031 56.464844 36.996094 55.628906 C 36.183594 55.167969 35.394531 54.59375 34.84375 53.96875 C 34.296875 53.339844 34 52.707031 34 52 Z M 47.8125 53.023438 L 49.667969 54.628906 L 51.6875 59.449219 L 46.621094 61.472656 L 48.800781 65.84375 L 45.988281 69 L 41.84375 69 L 41.257813 61.355469 L 42.691406 57.773438 C 43.121094 57.535156 43.578125 57.261719 44.042969 56.96875 C 44.957031 56.378906 45.890625 55.683594 46.636719 54.886719 C 47.144531 54.339844 47.578125 53.71875 47.8125 53.023438 Z M 32.140625 53.0625 C 32.355469 53.910156 32.796875 54.660156 33.34375 55.28125 C 34.105469 56.15625 35.066406 56.832031 36.003906 57.371094 C 36.496094 57.652344 36.980469 57.890625 37.4375 58.09375 L 38.742188 61.355469 L 38.15625 69 L 34.011719 69 L 31.199219 65.84375 L 33.378906 61.472656 L 28.3125 59.449219 L 30.332031 54.628906 Z M 27.601563 55.972656 L 25.6875 60.550781 L 30.621094 62.523438 L 28.800781 66.15625 L 31.332031 69 L 16 69 L 16 65 C 16 64.238281 16.453125 63.316406 17.367188 62.332031 C 18.28125 61.347656 19.609375 60.335938 21.09375 59.398438 C 23.195313 58.074219 25.578125 56.898438 27.601563 55.972656 Z M 52.398438 55.972656 C 54.421875 56.898438 56.804688 58.074219 58.90625 59.398438 C 60.390625 60.335938 61.71875 61.347656 62.632813 62.332031 C 63.546875 63.316406 64 64.238281 64 65 L 64 69 L 48.667969 69 L 51.199219 66.15625 L 49.378906 62.523438 L 54.3125 60.550781 Z"/></svg>