<svg version="1.1" id="Layer_1" xmlns="http://www.w3.org/2000/svg" xmlns:xlink="http://www.w3.org/1999/xlink" x="0px" y="0px"
	 width="100%" viewBox="0 0 2000 1127" enable-background="new 0 0 2000 1127" xml:space="preserve">
<path fill="none" opacity="1.000000" stroke="#000000" stroke-linecap="round" stroke-linejoin="round" stroke-width="9.000000"
	d="
M1303.500000,447.000000 
	C1305.671509,453.952271 1303.587158,461.001434 1303.952271,468.002502 
	C1304.260254,473.909210 1305.081055,474.935455 1311.000000,474.995056 
	C1313.833130,475.023590 1316.675415,474.858368 1319.497925,475.033752 
	C1323.557251,475.285980 1325.096558,473.554291 1325.052979,469.499420 
	C1324.911255,456.334290 1325.096802,443.165649 1324.957764,430.000458 
	C1324.891602,423.727448 1325.726685,422.841858 1332.000732,422.961823 
	C1340.164429,423.117889 1348.335938,422.877655 1356.498901,423.051819 
	C1360.556396,423.138367 1362.136108,421.556335 1362.051880,417.498932 
	C1361.878906,409.169159 1362.120972,400.830841 1361.948120,392.501068 
	C1361.863892,388.443665 1363.442505,386.830261 1367.501465,386.950409 
	C1373.829346,387.137726 1380.167236,387.053314 1386.499878,386.983612 
	C1391.843628,386.924805 1392.484619,386.232056 1392.496704,381.000000 
	C1392.510620,375.000031 1392.488159,368.999969 1392.503662,363.000000 
	C1392.516968,357.898865 1393.294312,357.093658 1398.500244,357.013031 
	C1402.665771,356.948517 1406.833618,356.971954 1411.000000,357.006714 
	C1416.918945,357.056061 1417.979004,358.081085 1417.989624,364.000031 
	C1418.019531,380.666626 1418.000000,397.333344 1418.000000,414.000000 
	C1418.000000,424.000000 1417.976685,434.000061 1418.009277,443.999969 
	C1418.026855,449.439911 1418.560059,449.944305 1424.000000,449.994690 
	C1427.166382,450.024017 1430.333374,450.008911 1433.500000,449.998047 
	C1439.365967,449.977936 1439.882935,448.287140 1439.927490,442.999390 
	C1440.011719,433.001495 1439.697998,422.999329 1439.481934,413.000397 
	C1439.411499,409.739960 1440.219971,406.900513 1443.010864,405.016144 
	C1451.240356,399.459717 1452.768555,391.655579 1451.066284,382.487701 
	C1450.306519,378.396240 1452.338745,376.089844 1456.500488,376.043427 
	C1467.832397,375.917053 1479.166748,376.028107 1490.500000,375.984528 
	C1494.378662,375.969604 1495.041992,378.285095 1495.025757,381.500122 
	C1494.962524,393.999817 1495.000000,406.500000 1495.000000,419.000000 
	C1495.000000,435.500000 1494.991821,452.000000 1495.004272,468.500000 
	C1495.008789,474.445557 1499.676880,477.196686 1505.011353,474.522705 
	C1507.536133,473.257172 1506.981934,471.034668 1506.984985,468.999969 
	C1507.011230,451.666687 1507.089844,434.332489 1506.922852,417.000732 
	C1506.890259,413.608521 1507.703979,410.816315 1510.019165,408.519348 
	C1514.620850,403.953857 1519.421509,399.586517 1523.961426,394.962158 
	C1526.118652,392.764923 1528.439697,391.934509 1531.500244,391.947174 
	C1554.833252,392.043549 1578.166626,391.992279 1601.500000,392.004852 
	C1608.201294,392.008453 1608.995239,392.798706 1608.995605,399.500000 
	C1609.001709,527.833313 1609.000977,656.166687 1608.996216,784.500000 
	C1608.996094,790.001465 1608.970947,790.001465 1601.000000,791.500000 
"/>
<path fill="none" opacity="1.000000" stroke="#000000" stroke-linecap="round" stroke-linejoin="round" stroke-width="9.000000"
	d="
M412.500000,430.000000 
	C402.510529,429.202423 392.494659,429.768463 382.503204,429.410767 
	C378.208649,429.257050 375.851654,430.832245 375.912964,436.001038 
	C376.134277,454.665070 376.000000,473.333344 376.000000,492.000000 
	C376.000000,589.166687 376.016785,686.333313 375.964813,783.500000 
	C375.961090,790.492859 376.506744,791.050964 383.500061,791.036743 
	C421.666565,790.959412 459.833344,791.000000 498.000000,791.000000 
"/>
<path fill="none" opacity="1.000000" stroke="#000000" stroke-linecap="round" stroke-linejoin="round" stroke-width="9.000000"
	d="
M905.000000,494.000000 
	C906.758728,489.592621 904.646606,485.313080 904.624329,480.999359 
	C904.568359,470.170349 903.894226,459.322113 904.940613,448.494263 
	C905.049194,447.370270 904.591370,445.998901 903.959106,445.026611 
	C899.091919,437.541473 893.952332,430.575531 883.497864,430.938538 
	C874.841614,431.239105 866.166321,430.951172 857.500122,431.018005 
	C852.156555,431.059204 851.509583,431.767944 851.503723,437.000000 
	C851.491455,448.000000 851.523010,459.000061 851.489380,469.999969 
	C851.474792,474.773560 850.320618,475.953644 845.499878,475.983215 
	C836.166931,476.040527 826.831299,475.886932 817.500916,476.052460 
	C813.444214,476.124420 811.909973,474.553864 811.947083,470.499512 
	C812.081421,455.834076 812.010986,441.166656 811.995117,426.500000 
	C811.987793,419.689850 810.877502,418.863281 803.995361,419.445465 
	C800.354736,419.753448 796.662354,419.611786 793.001160,419.469727 
	C789.041992,419.316071 787.244873,421.034180 787.481445,425.001099 
	C787.590393,426.827942 787.471252,428.667206 787.506897,430.499878 
	C787.557922,433.125793 786.533936,435.556854 783.984192,435.872406 
	C779.783508,436.392273 779.991516,439.083008 779.994263,442.000000 
	C780.007080,455.833344 780.009644,469.666656 779.995544,483.500000 
	C779.989319,489.643158 779.643127,489.994843 773.500000,489.995697 
	C720.166687,490.003113 666.833313,490.003052 613.500000,489.995758 
	C607.424438,489.994934 606.440796,489.050781 606.520264,483.000275 
	C606.590332,477.665649 606.787048,472.331360 607.016235,467.000702 
	C607.169922,463.424835 605.573914,461.931702 601.999695,461.967133 
	C592.333923,462.063049 582.665344,462.093048 573.000610,461.955658 
	C568.956970,461.898163 567.945312,463.925903 567.966125,467.500183 
	C568.048523,481.666382 568.018127,495.833374 567.990601,509.999969 
	C567.980286,515.312500 567.301636,516.000000 562.500000,516.000000 
	C557.698364,516.000000 557.016113,515.312439 557.009399,510.000000 
	C556.985535,491.000031 556.934631,471.999634 557.040100,453.000214 
	C557.071350,447.372253 556.786987,445.594086 549.998962,445.982391 
	C548.193054,446.085693 546.355469,446.245758 544.983154,444.513367 
	C542.024841,440.778809 537.809937,440.477142 533.500000,440.496063 
	C529.333374,440.514343 525.166321,440.466522 521.000122,440.511017 
	C517.910400,440.544006 516.071777,439.034058 516.562683,436.010193 
	C518.128540,426.365295 512.705444,420.401611 506.008453,414.989563 
	C505.279266,414.400269 504.526428,413.758118 504.022491,412.985321 
	C500.436401,407.485992 494.946808,406.486694 489.000000,406.498352 
	C484.666656,406.506836 480.327179,406.354584 476.001617,406.538269 
	C471.046692,406.748657 470.037323,407.945068 470.007385,413.000031 
	C469.974823,418.499847 469.791016,424.010498 470.066254,429.496674 
	C470.285400,433.863922 469.116333,437.480469 466.001465,440.501526 
	C465.324768,441.157837 464.769348,442.005798 463.984100,442.473267 
	C456.398560,446.988983 455.606445,453.982880 455.869904,462.004272 
	C456.334686,476.155670 455.904816,490.334381 456.060730,504.499329 
	C456.104828,508.503693 454.836731,512.456726 455.924194,516.520264 
	C456.390045,518.261047 456.010284,520.069824 453.508484,520.544739 
	C450.832184,521.052856 447.587372,522.187134 446.139130,519.427002 
	C443.441864,514.286621 439.269073,514.211731 434.497498,514.449524 
	C429.842377,514.681458 425.149536,514.251831 420.505005,514.572327 
	C416.177551,514.870972 414.955231,512.737366 414.992523,508.999939 
	C415.027466,505.500275 415.000000,502.000000 415.000000,498.500000 
	C415.000000,478.500000 414.869476,458.498444 415.110229,438.501312 
	C415.158325,434.506042 413.888092,431.087280 412.750000,427.500000 
"/>
<path fill="none" opacity="1.000000" stroke="#000000" stroke-linecap="round" stroke-linejoin="round" stroke-width="9.000000"
	d="
M970.000061,4.999998 
	C971.000061,25.499998 972.046509,45.997917 972.966797,66.501495 
	C973.190735,71.491440 973.216614,76.512535 972.928223,81.495850 
	C972.714722,85.186035 974.133118,87.298935 977.494324,88.515678 
	C990.353088,93.170479 998.001587,102.513916 1001.487854,115.503258 
	C1002.884827,120.708214 1001.120300,122.906479 995.499817,122.984718 
	C990.334106,123.056633 985.164673,123.087875 980.000671,122.969788 
	C976.424866,122.888031 974.840332,124.424561 974.986389,128.000549 
	C975.646851,144.167496 975.768066,160.350616 976.917847,176.505844 
	C977.521057,184.980377 977.595459,193.526154 977.753784,202.004593 
	C978.046326,217.674377 978.980408,233.320358 979.181213,248.997681 
	C979.454590,270.340332 981.110535,291.662323 981.947144,313.002075 
	C982.293396,321.834442 982.727661,330.693909 982.803955,339.501709 
	C983.009155,363.192566 984.792114,386.816254 985.228455,410.495789 
	C985.384644,418.973114 985.921326,427.492615 985.951477,436.000183 
	C985.959717,438.324768 987.108521,440.074921 988.000000,442.000000 
"/>
<path fill="none" opacity="1.000000" stroke="#000000" stroke-linecap="round" stroke-linejoin="round" stroke-width="9.000000"
	d="
M961.000000,5.000000 
	C960.653442,26.509926 958.869263,47.969982 958.863037,69.499962 
	C958.861694,74.123543 957.846985,78.800789 958.006592,83.499779 
	C958.136780,87.329819 955.178406,87.902451 952.513733,89.032326 
	C939.845215,94.403877 931.819763,103.515099 929.999573,117.499939 
	C929.430847,121.869591 930.073914,122.827469 934.501221,122.959137 
	C940.162903,123.127533 945.833923,122.949539 951.499817,123.015106 
	C956.524963,123.073257 957.625793,124.347061 956.399963,128.973495 
	C956.170410,129.839691 955.989380,130.675079 956.026672,131.498795 
	C956.669983,145.690994 955.154053,159.830292 954.795166,173.994812 
	C954.508118,185.325378 954.488953,196.681595 953.905334,207.995117 
	C952.590271,233.486496 951.771545,258.989746 950.839233,284.494110 
	C950.156799,303.160919 949.921021,321.851746 948.866760,340.492462 
	C947.924194,357.158569 947.696472,373.834503 947.004395,390.500183 
	C946.153076,410.999420 945.247620,431.497192 944.572693,452.002380 
	C944.438599,456.076202 942.399048,457.028595 938.999939,457.006775 
	C934.666809,456.978943 930.333069,457.027008 926.000061,456.991821 
	C922.263245,456.961456 920.112793,458.343811 920.471069,462.502502 
	C920.771606,465.990662 920.128723,469.526398 920.971985,473.006805 
	C921.162659,473.793915 921.351135,474.944397 920.945618,475.456970 
	C916.980957,480.468933 913.741943,486.410431 906.500000,487.500000 
"/>
<path fill="none" opacity="1.000000" stroke="#000000" stroke-linecap="round" stroke-linejoin="round" stroke-width="21.000000"
	d="
M1162.500000,734.000000 
	C1169.389282,728.302673 1178.113281,729.583069 1186.026489,728.145691 
	C1204.148438,724.853882 1217.843018,710.798462 1219.563965,691.005554 
	C1220.512817,680.091736 1220.324463,669.273071 1216.397095,659.039490 
	C1210.324951,643.217285 1197.296509,636.071899 1181.497314,633.014099 
	C1167.104492,630.228577 1152.525024,630.974243 1138.000244,631.052002 
	C1129.961792,631.095093 1128.002808,633.382996 1128.001465,641.500000 
	C1127.997437,667.500000 1128.059692,693.500305 1127.938721,719.499695 
	C1127.919556,723.615723 1130.573975,727.369141 1130.161499,730.961121 
	C1129.749390,734.550110 1127.961670,738.090332 1127.968872,742.000061 
	C1128.024902,772.666626 1128.000000,803.333313 1128.000000,834.000000 
"/>
<path fill="none" opacity="1.000000" stroke="#000000" stroke-linecap="round" stroke-linejoin="round" stroke-width="9.000000"
	d="
M1135.500000,455.500000 
	C1135.294189,451.152802 1136.801147,448.012207 1140.966187,445.932312 
	C1148.025635,442.407013 1151.947632,437.001953 1151.614014,428.495514 
	C1151.157227,416.846771 1151.478516,405.166595 1151.509399,393.500031 
	C1151.523804,388.060120 1152.060059,387.526276 1157.500000,387.509338 
	C1167.833252,387.477142 1178.166748,387.531036 1188.500000,387.488922 
	C1195.228149,387.461487 1195.995605,386.650696 1195.998901,380.000000 
	C1196.003418,371.000000 1195.986084,361.999969 1196.011475,353.000031 
	C1196.016724,351.163147 1196.169556,349.326630 1196.237793,347.845337 
	C1199.728760,345.241394 1203.171753,347.065338 1206.500244,347.041290 
	C1220.166260,346.942505 1233.833374,346.990265 1247.500000,347.004395 
	C1253.643188,347.010773 1253.992432,347.356873 1253.995605,353.500000 
	C1254.006958,375.500000 1253.993164,397.500000 1254.004517,419.500000 
	C1254.007690,425.643127 1254.356812,425.982513 1260.500000,425.996185 
	C1267.833374,426.012482 1275.169800,426.129364 1282.498779,425.949005 
	C1286.556885,425.849121 1288.278442,427.442474 1288.035278,431.502106 
	C1287.856079,434.491364 1287.948120,437.501129 1288.014038,440.499695 
	C1288.084351,443.701508 1289.367920,446.169037 1292.984741,445.425537 
	C1297.993286,444.395966 1302.658203,446.289032 1307.500000,446.500000 
"/>
<path fill="none" opacity="1.000000" stroke="#000000" stroke-linecap="round" stroke-linejoin="round" stroke-width="22.000000"
	d="
M1501.500000,631.500000 
	C1485.000000,631.500000 1468.500000,631.500000 1452.000000,631.500000 
	C1450.833374,631.500000 1449.594849,631.241089 1448.511353,631.541199 
	C1440.415649,633.783630 1438.824707,632.517578 1438.990967,642.000183 
	C1440.109619,705.830750 1439.213623,769.666992 1439.500000,833.500000 
"/>
<path fill="none" opacity="1.000000" stroke="#000000" stroke-linecap="round" stroke-linejoin="round" stroke-width="9.000000"
	d="
M1033.000000,426.500000 
	C1034.577148,429.297668 1035.065308,432.274384 1035.046265,435.500275 
	C1034.947144,452.333038 1035.253052,469.171936 1034.901367,485.997925 
	C1034.703247,495.481445 1036.265869,496.258179 1046.500000,493.884003 
	C1046.500000,484.839386 1046.500000,475.669678 1046.500000,466.500000 
	C1046.500000,464.333344 1046.459595,462.165771 1046.507690,460.000183 
	C1046.641357,453.981018 1047.606201,453.023407 1053.500000,453.002686 
	C1057.500000,452.988647 1061.525146,453.281555 1065.493530,452.927582 
	C1070.283203,452.500336 1073.485474,453.715027 1074.000000,459.000000 
"/>
<path fill="none" opacity="1.000000" stroke="#000000" stroke-linecap="round" stroke-linejoin="round" stroke-width="9.000000"
	d="
M1601.000000,793.000000 
	C1600.535889,789.326965 1597.656738,791.092957 1595.999756,791.088318 
	C1556.000122,790.975037 1516.000000,791.000000 1476.000000,791.000000 
"/>
<path fill="none" opacity="1.000000" stroke="#000000" stroke-linecap="round" stroke-linejoin="round" stroke-width="19.000000"
	d="
M1131.000000,730.499939 
	C1136.833374,730.333313 1142.667358,730.187195 1148.499634,729.989563 
	C1150.741333,729.913574 1152.866699,730.306580 1155.009033,730.970886 
	C1159.638672,732.406555 1162.827393,734.411255 1164.265503,739.930847 
	C1165.991821,746.555664 1171.542847,751.445190 1175.582031,756.939697 
	C1194.061890,782.077026 1212.819702,807.010315 1231.542603,831.968079 
	C1232.431885,833.153625 1233.211426,834.387573 1234.948975,835.121033 
	C1240.915161,837.639404 1246.666626,840.666687 1252.500000,843.500061 
"/>
<path fill="none" opacity="1.000000" stroke="#000000" stroke-linecap="round" stroke-linejoin="round" stroke-width="18.000000"
	d="
M891.500000,645.500000 
	C883.745178,649.472717 882.066345,657.583374 879.106873,664.545410 
	C867.676941,691.433533 856.593628,718.470093 845.534546,745.514160 
	C840.851379,756.966492 843.448059,760.500000 856.000000,760.500000 
	C879.166687,760.500000 902.333435,760.457886 925.499878,760.537659 
	C929.820374,760.552490 933.800964,759.703857 937.500000,757.500000 
"/>
<path fill="none" opacity="1.000000" stroke="#000000" stroke-linecap="round" stroke-linejoin="round" stroke-width="18.000000"
	d="
M892.500000,614.500000 
	C892.309265,623.999573 892.890076,633.512329 892.005554,643.000488 
	C891.885620,644.286499 892.155090,645.121033 893.432190,646.089417 
	C897.544128,649.207458 899.653564,653.778259 901.520264,658.492004 
	C912.812988,687.008057 924.167114,715.499817 935.496521,744.001404 
	C935.690918,744.490356 935.850769,744.994934 935.997314,745.500793 
	C938.004700,752.431580 939.506958,759.314270 943.723328,765.683167 
	C947.681274,771.661621 949.299011,779.180298 952.009521,785.996216 
	C954.799988,793.013306 957.756470,799.965393 960.474365,807.009888 
	C963.093140,813.797363 965.838928,820.566223 967.902649,827.528870 
	C969.887512,834.225525 975.183105,837.127686 980.500000,840.250000 
"/>
<path fill="none" opacity="1.000000" stroke="#000000" stroke-linecap="round" stroke-linejoin="round" stroke-width="9.000000"
	d="
M1137.500000,447.500000 
	C1134.876099,443.511017 1134.798096,439.034973 1134.998169,434.499908 
	C1136.152222,408.339691 1135.203491,382.165924 1135.451416,355.999542 
	C1135.470337,354.006073 1134.798950,352.006042 1134.457642,350.062103 
	C1132.612793,348.990021 1130.573242,348.980164 1128.500000,348.985840 
	C1117.500000,349.015961 1106.500000,348.987579 1095.500000,349.004608 
	C1088.798706,349.014954 1088.006836,349.798706 1088.004761,356.500000 
	C1087.994385,390.833344 1088.000000,425.166656 1088.000000,459.500000 
	C1088.000000,466.653870 1083.031616,470.110107 1076.500000,467.499939 
	C1073.421387,466.269684 1072.866211,461.411652 1075.500000,458.750000 
"/>
<path fill="none" opacity="1.000000" stroke="#000000" stroke-linecap="round" stroke-linejoin="round" stroke-width="18.000000"
	d="
M843.500000,758.000000 
	C839.267151,761.618835 837.032532,766.469116 834.978516,771.491211 
	C827.198547,790.513062 819.082520,809.403137 811.683289,828.570740 
	C809.920044,833.138367 807.366455,836.131775 803.497253,838.495483 
	C801.680176,839.605408 799.833374,840.666687 798.000000,841.750000 
"/>
<path fill="none" opacity="1.000000" stroke="#000000" stroke-linecap="round" stroke-linejoin="round" stroke-width="5.000000"
	d="
M1130.500000,941.000000 
	C1130.573608,948.103760 1135.161011,952.500000 1142.500000,952.500000 
	C1148.783203,952.500000 1154.295410,947.447144 1154.500000,941.500000 
	C1154.773071,933.565430 1150.503906,928.326111 1143.500000,928.000122 
	C1135.276489,927.617249 1130.500000,932.210022 1130.500000,940.500000 
"/>
<path fill="none" opacity="1.000000" stroke="#000000" stroke-linecap="round" stroke-linejoin="round" stroke-width="5.000000"
	d="
M711.000000,927.500000 
	C708.364868,928.162170 705.692688,928.480774 703.463684,930.459045 
	C698.070862,935.245117 697.135010,939.605408 700.500000,946.000000 
	C703.495178,951.691833 707.726807,953.505371 714.500000,952.000000 
	C719.777710,950.826965 723.508118,946.070679 723.497803,940.500000 
	C723.487061,934.671692 719.793884,929.107971 713.501099,927.993652 
	C712.826111,927.874146 712.166687,927.666687 711.500000,927.500000 
"/>
<path fill="none" opacity="1.000000" stroke="#000000" stroke-linecap="round" stroke-linejoin="round" stroke-width="5.000000"
	d="
M553.500000,928.000000 
	C546.693665,928.574036 541.035522,934.281616 541.549377,940.495911 
	C542.186340,948.198730 548.574585,952.526672 553.994812,952.681519 
	C561.006226,952.881836 566.420227,946.364502 566.519470,940.500305 
	C566.638062,933.493042 562.036865,928.635620 554.500000,928.000000 
"/>
<path fill="none" opacity="1.000000" stroke="#000000" stroke-linecap="round" stroke-linejoin="round" stroke-width="20.000000"
	d="
M1439.500000,634.500000 
	C1435.084229,632.329407 1430.481323,631.385742 1425.499390,631.437805 
	C1409.501099,631.605103 1393.500000,631.500000 1377.500000,631.500000 
"/>
<path fill="none" opacity="1.000000" stroke="#000000" stroke-linecap="round" stroke-linejoin="round" stroke-width="5.000000"
	d="
M998.000000,931.000000 
	C1002.030029,931.026917 1005.902893,932.252808 1010.083496,930.167358 
	C1014.609924,927.909424 1016.773865,925.879517 1016.500000,921.000000 
	C1016.241577,916.395691 1013.456177,913.248352 1009.001831,912.489319 
	C1008.488342,912.401794 1007.991333,912.001404 1007.501404,912.027100 
	C1004.501099,912.184753 1001.398071,911.363953 998.512878,912.531799 
	C993.994873,914.360535 997.824768,917.502014 997.533203,920.003845 
	C996.331848,930.312561 997.181396,940.666931 997.000000,951.000000 
"/>
<path fill="none" opacity="1.000000" stroke="#000000" stroke-linecap="round" stroke-linejoin="round" stroke-width="5.000000"
	d="
M1481.000000,939.000000 
	C1487.759277,939.000000 1494.518555,939.000000 1501.173340,939.000000 
	C1502.017456,930.739014 1496.695312,927.428772 1491.002686,927.594055 
	C1485.303711,927.759521 1480.542358,930.373230 1480.436401,937.999146 
	C1480.385864,941.635742 1479.739624,945.383850 1482.044922,948.466431 
	C1487.007446,955.101624 1495.466797,954.597046 1501.500000,947.500000 
"/>
<path fill="none" opacity="1.000000" stroke="#000000" stroke-linecap="round" stroke-linejoin="round" stroke-width="5.000000"
	d="
M434.500000,939.000000 
	C441.425690,939.000000 448.351410,939.000000 455.315826,939.000000 
	C454.611420,930.975159 451.113129,927.237549 444.503418,927.568115 
	C437.346893,927.926086 434.455017,932.316345 433.728424,938.970337 
	C432.874878,946.787048 438.722015,954.022583 446.503876,953.030334 
	C449.437225,952.656250 452.339539,951.478821 453.788879,949.355896 
	C454.975494,947.617737 456.591827,948.619019 457.500000,947.500000 
"/>
<path fill="none" opacity="1.000000" stroke="#000000" stroke-linecap="round" stroke-linejoin="round" stroke-width="3.000000"
	d="
M1212.500000,1053.000000 
	C1210.333374,1051.666748 1208.312134,1049.922852 1205.967529,1049.091675 
	C1201.974731,1047.676270 1195.953979,1050.766357 1193.500000,1055.000000 
	C1191.533081,1058.393188 1192.270752,1064.294312 1195.000000,1067.000000 
	C1198.205444,1070.177856 1202.502197,1070.092651 1207.542725,1067.585815 
	C1211.338745,1065.697998 1212.632935,1062.843994 1212.477783,1059.000854 
	C1212.331909,1055.389648 1213.120972,1051.945801 1214.000000,1048.500000 
"/>
<path fill="none" opacity="1.000000" stroke="#000000" stroke-linecap="round" stroke-linejoin="round" stroke-width="3.000000"
	d="
M902.500000,1065.500000 
	C905.018005,1065.590820 905.617432,1068.473877 907.981079,1069.074463 
	C913.494812,1070.474976 919.274231,1067.824219 921.558472,1062.525269 
	C923.595764,1057.799438 922.258362,1052.710571 918.019836,1049.969360 
	C913.317993,1046.928589 902.630310,1050.985962 902.520264,1057.500366 
	C902.451599,1061.566162 902.092529,1065.574097 901.000000,1069.500000 
"/>
<path fill="none" opacity="1.000000" stroke="#000000" stroke-linecap="round" stroke-linejoin="round" stroke-width="3.000000"
	d="
M1158.000000,1065.000000 
	C1161.393921,1068.926514 1165.280518,1070.924316 1170.508545,1068.518555 
	C1175.430664,1066.253540 1177.348511,1063.100098 1177.562500,1058.002686 
	C1177.846802,1051.233032 1170.721436,1046.791992 1164.498413,1049.997070 
	C1162.841919,1050.850220 1161.166626,1051.666626 1159.500000,1052.500000 
"/>
<path fill="none" opacity="1.000000" stroke="#000000" stroke-linecap="round" stroke-linejoin="round" stroke-width="3.000000"
	d="
M956.000000,1048.500000 
	C955.333374,1053.333374 954.842224,1058.199219 953.951843,1062.991089 
	C953.015747,1068.028442 949.332703,1070.274536 944.992371,1069.026489 
	C941.630493,1068.059937 939.677063,1066.127197 940.020813,1062.501953 
	C940.432556,1058.160278 941.000061,1053.833374 941.500061,1049.500000 
"/>
<path fill="none" opacity="1.000000" stroke="#000000" stroke-linecap="round" stroke-linejoin="round" stroke-width="5.000000"
	d="
M938.000000,932.500000 
	C934.230774,931.628174 932.118347,927.408752 927.488403,927.888062 
	C922.378967,928.416992 918.968140,930.567444 917.500000,935.500000 
	C915.592163,941.909546 917.156250,947.634216 921.492493,950.511292 
	C925.872192,953.417236 930.152344,954.196960 934.990906,949.490662 
	C935.990234,948.518677 937.034119,947.801880 938.500000,948.000000 
"/>
<path fill="none" opacity="1.000000" stroke="#000000" stroke-linecap="round" stroke-linejoin="round" stroke-width="5.000000"
	d="
M1239.000000,933.000000 
	C1237.724365,933.051392 1236.666748,932.471558 1236.024292,931.484192 
	C1232.772583,926.486023 1227.694946,927.422363 1223.574219,928.733154 
	C1219.320190,930.086426 1217.377075,934.194885 1217.446167,939.000793 
	C1217.494385,942.352356 1217.298340,945.713501 1219.520386,948.483643 
	C1223.864014,953.898743 1230.671143,953.335022 1234.977051,950.465515 
	C1236.359253,949.544312 1237.211060,947.775513 1239.250000,948.000000 
"/>
<path fill="none" opacity="1.000000" stroke="#000000" stroke-linecap="round" stroke-linejoin="round" stroke-width="9.000000"
	d="
M1034.750000,419.500000 
	C1034.503540,423.052490 1033.304932,425.645569 1029.541138,427.106018 
	C1025.243286,428.773682 1022.397644,432.665497 1019.634949,436.108307 
	C1016.817078,439.619904 1013.717590,440.717865 1009.497925,440.553192 
	C1003.129517,440.304688 996.811096,440.707001 990.469910,441.830261 
	C987.188538,442.411499 986.304932,443.641418 986.500000,446.500000 
"/>
<path fill="none" opacity="1.000000" stroke="#000000" stroke-linecap="round" stroke-linejoin="round" stroke-width="5.000000"
	d="
M844.500000,933.500000 
	C840.514832,930.443237 837.045959,926.114197 830.976562,928.438782 
	C830.010437,928.808716 828.990234,928.704834 827.953369,929.433655 
	C822.997925,932.916748 821.291199,943.006287 824.999939,948.000061 
	C829.227905,953.692749 836.177673,954.088562 842.015076,949.017395 
	C842.737549,948.389709 843.666687,948.000000 844.500000,947.500000 
"/>
<path fill="none" opacity="1.000000" stroke="#000000" stroke-linecap="round" stroke-linejoin="round" stroke-width="6.000000"
	d="
M591.500000,909.500000 
	C591.500000,923.500000 591.500000,937.500000 591.500000,951.500000 
"/>
<path fill="none" opacity="1.000000" stroke="#000000" stroke-linecap="round" stroke-linejoin="round" stroke-width="5.000000"
	d="
M1389.000000,952.000000 
	C1389.144897,947.499207 1388.883301,943.006409 1389.413696,938.489868 
	C1389.881958,934.504333 1388.564087,930.840942 1384.981934,928.527954 
	C1382.041382,926.629089 1376.791016,927.352661 1373.523560,930.028809 
	C1372.301025,931.030090 1371.290771,932.248230 1369.500000,932.000000 
"/>
<path fill="none" opacity="1.000000" stroke="#000000" stroke-linecap="round" stroke-linejoin="round" stroke-width="5.000000"
	d="
M1610.749878,952.000000 
	C1610.666626,946.333313 1610.962158,940.629089 1610.405029,935.009399 
	C1609.691895,927.817200 1602.737305,925.101929 1597.023438,929.530212 
	C1595.452393,930.747742 1594.243896,932.462158 1592.000000,932.500000 
"/>
<path fill="none" opacity="1.000000" stroke="#000000" stroke-linecap="round" stroke-linejoin="round" stroke-width="6.000000"
	d="
M517.500000,951.500000 
	C517.500000,946.833313 517.485107,942.166626 517.504700,937.500000 
	C517.520508,933.730469 516.849731,930.258789 512.989197,928.524109 
	C509.098999,926.776062 505.604584,927.518677 502.467499,930.465393 
	C501.442749,931.427917 500.897614,933.190002 499.000000,933.000000 
"/>
<path fill="none" opacity="1.000000" stroke="#000000" stroke-linecap="round" stroke-linejoin="round" stroke-width="6.000000"
	d="
M892.500000,951.500000 
	C892.500000,946.833313 892.430664,942.165344 892.521606,937.500427 
	C892.596497,933.658020 891.682800,930.146729 887.959229,928.598083 
	C884.600037,927.200867 880.845520,927.471313 877.547791,929.096924 
	C876.189453,929.766541 875.115662,931.118408 873.500000,931.500000 
"/>
<path fill="none" opacity="1.000000" stroke="#000000" stroke-linecap="round" stroke-linejoin="round" stroke-width="6.000000"
	d="
M1454.500000,914.000000 
	C1454.500000,926.500000 1454.500000,939.000000 1454.500000,951.500000 
"/>
<path fill="none" opacity="1.000000" stroke="#000000" stroke-linecap="round" stroke-linejoin="round" stroke-width="5.000000"
	d="
M1061.000000,948.000000 
	C1054.164307,956.500854 1042.750000,953.742615 1039.978516,944.506470 
	C1038.057739,938.105835 1041.088989,929.877808 1046.515747,928.046753 
	C1052.745850,925.944763 1060.614136,928.293457 1061.564819,938.173828 
	C1054.635254,939.892822 1047.506470,938.591370 1040.500000,939.000000 
"/>
<path fill="none" opacity="1.000000" stroke="#000000" stroke-linecap="round" stroke-linejoin="round" stroke-width="3.000000"
	d="
M886.000000,1048.500000 
	C885.097229,1053.488403 885.200256,1058.641968 883.504333,1063.501465 
	C881.993225,1067.831665 878.769043,1070.267334 875.500000,1069.500000 
	C871.287720,1068.511353 869.236267,1064.935791 869.993164,1059.998901 
	C870.528870,1056.504395 871.000061,1053.000000 871.500061,1049.500000 
"/>
<path fill="none" opacity="1.000000" stroke="#000000" stroke-linecap="round" stroke-linejoin="round" stroke-width="3.000000"
	d="
M1058.500000,1045.000000 
	C1048.933350,1038.498779 1037.852295,1040.714966 1033.500122,1050.000000 
	C1030.931519,1055.479980 1031.940308,1063.057495 1036.032715,1066.460571 
	C1040.245361,1069.963623 1048.136475,1071.472290 1055.000000,1066.500000 
"/>
<path fill="none" opacity="1.000000" stroke="#000000" stroke-linecap="round" stroke-linejoin="round" stroke-width="3.000000"
	d="
M1245.000000,1069.500000 
	C1245.531738,1064.669922 1246.705444,1059.908081 1246.504028,1054.999878 
	C1246.352661,1051.311157 1244.237427,1049.178589 1240.500000,1048.999878 
	C1236.149292,1048.791992 1231.498535,1053.308105 1230.353149,1057.459473 
	C1229.296753,1061.288452 1231.150391,1065.858032 1227.500000,1069.000000 
"/>
<path fill="none" opacity="1.000000" stroke="#000000" stroke-linecap="round" stroke-linejoin="round" stroke-width="3.000000"
	d="
M1138.000000,1069.500000 
	C1138.500000,1064.666626 1138.929199,1059.824585 1139.527954,1055.003418 
	C1139.858643,1052.339722 1138.761108,1050.579346 1136.488281,1049.525269 
	C1134.293701,1048.507568 1132.054077,1048.908203 1130.015137,1050.027466 
	C1128.349609,1050.941772 1127.782715,1053.339600 1125.500000,1053.500000 
"/>
<path fill="none" opacity="1.000000" stroke="#000000" stroke-linecap="round" stroke-linejoin="round" stroke-width="3.000000"
	d="
M769.500000,1068.500000 
	C770.000000,1064.333374 770.817993,1060.174561 770.922180,1055.998047 
	C771.063293,1050.345581 766.671265,1047.471802 761.504211,1049.510620 
	C757.630554,1051.039185 755.086243,1053.786499 754.526306,1058.003540 
	C754.063904,1061.486328 753.833374,1065.000000 753.500061,1068.500000 
"/>
<path fill="none" opacity="1.000000" stroke="#000000" stroke-linecap="round" stroke-linejoin="round" stroke-width="3.000000"
	d="
M854.000000,1040.500000 
	C852.833313,1049.833374 851.666687,1059.166626 850.500000,1068.500000 
"/>
<path fill="none" opacity="1.000000" stroke="#000000" stroke-linecap="round" stroke-linejoin="round" stroke-width="6.000000"
	d="
M1086.500000,932.000000 
	C1089.000000,930.666687 1091.372681,928.943481 1094.025146,928.076965 
	C1100.572144,925.938538 1105.469971,929.670044 1105.496216,936.500000 
	C1105.515381,941.499939 1105.500000,946.500000 1105.500000,951.500000 
"/>
<path fill="none" opacity="1.000000" stroke="#000000" stroke-linecap="round" stroke-linejoin="round" stroke-width="5.000000"
	d="
M1545.500000,933.500000 
	C1541.956909,931.059753 1539.279419,927.209229 1533.988770,927.916138 
	C1528.190552,928.691040 1524.628052,932.076538 1524.512085,938.000244 
	C1524.427124,942.345825 1523.838013,946.745056 1527.959717,950.050293 
	C1531.616333,952.982544 1537.809814,953.423218 1541.492676,950.490845 
	C1542.798706,949.450928 1543.644653,947.803955 1545.500000,947.500000 
"/>
<path fill="none" opacity="1.000000" stroke="#000000" stroke-linecap="round" stroke-linejoin="round" stroke-width="6.000000"
	d="
M749.000000,931.500000 
	C751.301575,931.358459 752.621704,929.259338 754.528809,928.580994 
	C761.677795,926.037964 768.406738,928.314148 768.491577,937.000061 
	C768.538757,941.832947 768.500000,946.666687 768.500000,951.500000 
"/>
<path fill="none" opacity="1.000000" stroke="#000000" stroke-linecap="round" stroke-linejoin="round" stroke-width="5.000000"
	d="
M673.750000,928.000000 
	C673.833374,936.000000 673.916687,944.000000 674.000000,952.000000 
"/>
<path fill="none" opacity="1.000000" stroke="#000000" stroke-linecap="round" stroke-linejoin="round" stroke-width="6.000000"
	d="
M1295.000000,928.000000 
	C1294.111206,935.991638 1294.429565,943.995789 1294.750000,952.000000 
"/>
<path fill="none" opacity="1.000000" stroke="#000000" stroke-linecap="round" stroke-linejoin="round" stroke-width="3.000000"
	d="
M981.000000,1051.000000 
	C978.898254,1049.045532 976.868652,1048.318604 973.946960,1049.902222 
	C970.791809,1051.612183 970.920471,1053.697266 972.578125,1055.942261 
	C973.664795,1057.414185 975.404602,1058.491821 977.020996,1059.465088 
	C979.866028,1061.178101 980.974731,1063.473145 979.460510,1066.480103 
	C977.665161,1070.045654 974.794373,1070.314453 971.496826,1068.505737 
	C970.517273,1067.968506 969.500000,1067.500000 968.500000,1067.000000 
"/>
<path fill="none" opacity="1.000000" stroke="#000000" stroke-linecap="round" stroke-linejoin="round" stroke-width="6.000000"
	d="
M618.500000,928.500000 
	C618.500000,936.166687 618.500000,943.833313 618.500000,951.500000 
"/>
<path fill="none" opacity="1.000000" stroke="#000000" stroke-linecap="round" stroke-linejoin="round" stroke-width="6.000000"
	d="
M1269.500000,916.500000 
	C1268.621704,916.441772 1267.747070,916.401978 1267.010132,917.375366 
	C1266.821899,928.668518 1268.053589,940.327026 1267.250000,952.000000 
"/>
<path fill="none" opacity="1.000000" stroke="#000000" stroke-linecap="round" stroke-linejoin="round" stroke-width="5.000000"
	d="
M1198.500000,927.000000 
	C1194.406128,927.842285 1194.407959,931.702698 1193.014526,934.507202 
	C1190.958130,938.645874 1189.291138,943.011047 1186.895264,946.936096 
	C1185.356323,949.457336 1186.698364,952.139709 1185.500000,954.500000 
"/>
<path fill="none" opacity="1.000000" stroke="#000000" stroke-linecap="round" stroke-linejoin="round" stroke-width="5.000000"
	d="
M1004.000000,932.500000 
	C1009.045410,940.005920 1013.068298,948.384766 1021.500000,953.000000 
"/>
<path fill="none" opacity="1.000000" stroke="#000000" stroke-linecap="round" stroke-linejoin="round" stroke-width="6.000000"
	d="
M939.500000,909.500000 
	C939.333313,922.166687 939.150269,934.833130 939.024170,947.500244 
	C939.010925,948.831787 939.333374,950.166687 939.500000,951.500000 
"/>
<path fill="none" opacity="1.000000" stroke="#000000" stroke-linecap="round" stroke-linejoin="round" stroke-width="5.000000"
	d="
M1185.500000,948.000000 
	C1180.768921,942.448914 1179.719482,935.065674 1176.115845,928.931946 
	C1175.617676,928.083984 1174.753052,928.247009 1174.500000,927.500000 
"/>
<path fill="none" opacity="1.000000" stroke="#000000" stroke-linecap="round" stroke-linejoin="round" stroke-width="5.000000"
	d="
M874.500000,927.500000 
	C873.621704,927.441772 872.747070,927.401978 872.000000,928.388672 
	C872.000000,936.000000 872.000000,944.000000 872.000000,952.000000 
"/>
<path fill="none" opacity="1.000000" stroke="#000000" stroke-linecap="round" stroke-linejoin="round" stroke-width="5.000000"
	d="
M748.000000,928.000000 
	C748.000000,936.000000 748.000000,944.000000 748.000000,952.000000 
"/>
<path fill="none" opacity="1.000000" stroke="#000000" stroke-linecap="round" stroke-linejoin="round" stroke-width="3.000000"
	d="
M997.000061,1048.500000 
	C996.166687,1055.166626 995.333374,1061.833374 994.500061,1068.500000 
"/>
<path fill="none" opacity="1.000000" stroke="#000000" stroke-linecap="round" stroke-linejoin="round" stroke-width="6.000000"
	d="
M1369.000000,928.000000 
	C1368.764160,935.998413 1368.032227,943.991638 1368.750000,952.000000 
"/>
<path fill="none" opacity="1.000000" stroke="#000000" stroke-linecap="round" stroke-linejoin="round" stroke-width="5.000000"
	d="
M1573.000000,928.000000 
	C1573.000000,936.000000 1573.000000,944.000000 1573.000000,952.000000 
"/>
<path fill="none" opacity="1.000000" stroke="#000000" stroke-linecap="round" stroke-linejoin="round" stroke-width="3.000000"
	d="
M1281.500000,1048.500000 
	C1276.722534,1051.815063 1275.674438,1057.608032 1272.584473,1062.058716 
	C1269.531128,1066.456909 1267.077637,1071.286255 1264.569702,1076.036743 
	C1264.020508,1077.077148 1263.255371,1077.118286 1262.500000,1077.500000 
"/>
<path fill="none" opacity="1.000000" stroke="#000000" stroke-linecap="round" stroke-linejoin="round" stroke-width="5.000000"
	d="
M1574.000000,932.000000 
	C1577.063477,931.944397 1578.100586,928.628418 1580.973145,927.894653 
	C1587.371094,926.260376 1592.222778,929.893188 1592.030273,936.500854 
	C1591.879761,941.663208 1592.000000,946.833313 1592.000000,952.000000 
"/>
<path fill="none" opacity="1.000000" stroke="#000000" stroke-linecap="round" stroke-linejoin="round" stroke-width="5.000000"
	d="
M648.500000,916.500000 
	C645.327698,915.995972 646.020203,918.292114 646.009094,920.000061 
	C645.939880,930.667664 646.978516,941.326965 646.250000,952.000000 
"/>
<path fill="none" opacity="1.000000" stroke="#000000" stroke-linecap="round" stroke-linejoin="round" stroke-width="6.000000"
	d="
M479.500000,928.500000 
	C479.500000,936.166687 479.500000,943.833313 479.500000,951.500000 
"/>
<path fill="none" opacity="1.000000" stroke="#000000" stroke-linecap="round" stroke-linejoin="round" stroke-width="6.000000"
	d="
M1085.500000,928.500000 
	C1085.500000,936.166687 1085.500000,943.833313 1085.500000,951.500000 
"/>
<path fill="none" opacity="1.000000" stroke="#000000" stroke-linecap="round" stroke-linejoin="round" stroke-width="6.000000"
	d="
M480.500000,932.000000 
	C482.427032,931.640564 483.561890,930.112000 485.041321,929.057983 
	C488.145782,926.846130 491.703003,926.974670 494.967468,928.566711 
	C497.900879,929.997437 498.675049,932.758972 498.552216,936.001953 
	C498.356812,941.161255 498.500000,946.333313 498.500000,951.500000 
"/>
<path fill="none" opacity="1.000000" stroke="#000000" stroke-linecap="round" stroke-linejoin="round" stroke-width="3.000000"
	d="
M1261.500000,1049.000000 
	C1265.058960,1052.807129 1265.091064,1058.179199 1267.483398,1062.509155 
	C1268.093994,1063.614624 1268.500000,1064.833374 1269.000000,1066.000000 
"/>
<path fill="none" opacity="1.000000" stroke="#000000" stroke-linecap="round" stroke-linejoin="round" stroke-width="3.000000"
	d="
M1112.500000,1048.500000 
	C1109.050659,1048.727295 1111.562378,1051.334961 1111.234131,1052.562622 
	C1109.848022,1057.748169 1109.333374,1063.166626 1108.500000,1068.500000 
"/>
<path fill="none" opacity="1.000000" stroke="#000000" stroke-linecap="round" stroke-linejoin="round" stroke-width="3.000000"
	d="
M1112.000000,1052.000000 
	C1113.333374,1051.333374 1114.778076,1050.822632 1115.975952,1049.966431 
	C1118.225952,1048.357910 1120.477051,1048.594116 1122.462036,1050.051636 
	C1124.721436,1051.710815 1125.630859,1054.022461 1125.055542,1057.010742 
	C1124.325928,1060.799927 1124.000000,1064.666626 1123.500000,1068.500000 
"/>
<path fill="none" opacity="1.000000" stroke="#000000" stroke-linecap="round" stroke-linejoin="round" stroke-width="5.000000"
	d="
M1240.250000,928.000000 
	C1240.166626,933.666687 1240.471924,939.378479 1239.820801,944.979187 
	C1239.535156,947.436279 1240.338867,949.666687 1240.000000,952.000000 
"/>
<path fill="none" opacity="1.000000" stroke="#000000" stroke-linecap="round" stroke-linejoin="round" stroke-width="5.000000"
	d="
M743.500000,831.500000 
	C738.833313,831.500000 734.166687,831.500000 729.500000,831.500000 
"/>
<path fill="none" opacity="1.000000" stroke="#000000" stroke-linecap="round" stroke-linejoin="round" stroke-width="5.000000"
	d="
M846.000000,928.000000 
	C845.709290,936.000000 845.330566,944.000000 846.000000,952.000000 
"/>
<path fill="none" opacity="1.000000" stroke="#000000" stroke-linecap="round" stroke-linejoin="round" stroke-width="5.000000"
	d="
M1547.000000,928.000000 
	C1546.709351,936.000000 1546.330566,944.000000 1547.000000,952.000000 
"/>
<path fill="none" opacity="1.000000" stroke="#000000" stroke-linecap="round" stroke-linejoin="round" stroke-width="6.000000"
	d="
M1466.500000,912.500000 
	C1458.166626,912.500000 1449.833374,912.500000 1441.500000,912.500000 
"/>
<path fill="none" opacity="1.000000" stroke="#000000" stroke-linecap="round" stroke-linejoin="round" stroke-width="3.000000"
	d="
M729.000000,1041.500000 
	C728.682678,1043.221436 728.802429,1044.951782 727.542908,1046.534180 
	C722.197998,1053.249146 719.184631,1061.374268 714.500000,1068.500000 
"/>
<path fill="none" opacity="1.000000" stroke="#000000" stroke-linecap="round" stroke-linejoin="round" stroke-width="3.000000"
	d="
M729.000000,1046.500000 
	C732.971191,1052.614990 733.551025,1059.996094 736.417297,1066.536255 
	C736.929077,1067.703857 737.273315,1068.614624 738.500000,1069.000000 
"/>
<path fill="none" opacity="1.000000" stroke="#000000" stroke-linecap="round" stroke-linejoin="round" stroke-width="4.000000"
	d="
M1158.999878,1048.500000 
	C1157.833252,1057.833374 1156.666626,1067.166626 1155.499878,1076.500000 
"/>
<path fill="none" opacity="1.000000" stroke="#000000" stroke-linecap="round" stroke-linejoin="round" stroke-width="4.000000"
	d="
M904.500000,1041.500000 
	C905.292908,1045.210327 902.362732,1048.751343 904.000000,1052.500000 
"/>
<path fill="none" opacity="1.000000" stroke="#000000" stroke-linecap="round" stroke-linejoin="round" stroke-width="3.000000"
	d="
M721.500000,1059.000000 
	C725.336914,1058.916260 729.208069,1059.618408 733.000000,1058.500000 
"/>
<path fill="none" opacity="1.000000" stroke="#000000" stroke-linecap="round" stroke-linejoin="round" stroke-width="5.000000"
	d="
M651.000000,928.000000 
	C647.666687,928.000000 644.333313,928.000000 641.000000,928.000000 
"/>
<path fill="none" opacity="1.000000" stroke="#000000" stroke-linecap="round" stroke-linejoin="round" stroke-width="5.000000"
	d="
M1329.000000,928.000000 
	C1318.000000,932.745361 1316.113647,943.355591 1324.999878,950.500122 
	C1328.911255,953.644897 1336.042114,953.169312 1339.999878,949.499939 
	C1344.861572,944.992737 1346.044556,938.055725 1342.466675,933.526306 
	C1339.207886,929.400818 1334.998901,927.078247 1329.500000,928.000000 
"/>
<path fill="none" opacity="1.000000" stroke="#000000" stroke-linecap="round" stroke-linejoin="round" stroke-width="6.000000"
	d="
M384.000000,912.000000 
	C380.485687,912.185242 379.276794,913.800598 379.395691,917.503357 
	C379.705750,927.160095 379.486206,936.833374 379.514374,946.499939 
	C379.518768,948.003479 379.714630,949.506470 379.830475,951.128845 
	C386.935822,951.900574 393.928162,952.115051 400.468689,949.423889 
	C409.611603,945.661926 412.020599,934.698730 408.931976,924.019653 
	C406.642975,916.105225 401.252930,912.536438 393.000092,912.486084 
	C390.162567,912.468750 387.294098,912.833618 384.500000,912.000000 
"/>
<path fill="none" opacity="1.000000" stroke="#000000" stroke-linecap="round" stroke-linejoin="round" stroke-width="21.000000"
	d="
M538.500000,630.500000 
	C530.000000,633.023865 530.000000,633.023865 530.000000,642.000000 
	C530.000000,703.000000 530.022339,764.000000 529.977295,825.000000 
	C529.970093,834.779846 531.586487,834.871826 540.010925,835.266296 
	C559.985962,836.201477 580.069336,836.090210 599.987244,834.353699 
	C638.483704,830.997375 663.558655,812.136292 675.394775,771.968994 
	C680.476624,754.723022 681.293884,736.990112 679.674316,718.984314 
	C678.470703,705.603699 675.843506,692.704834 670.423157,680.534241 
	C657.887939,652.388367 636.179077,636.298218 605.500122,632.498962 
	C583.395264,629.761536 561.183167,630.617859 539.000000,630.500000 
"/>
<path fill="none" opacity="1.000000" stroke="#000000" stroke-linecap="round" stroke-linejoin="round" stroke-width="3.000000"
	d="
M1083.500000,1049.000000 
	C1076.600098,1050.959717 1073.751465,1053.950928 1073.500122,1059.500000 
	C1073.143555,1067.371704 1079.140747,1071.523682 1086.500000,1068.500000 
	C1091.051025,1066.630127 1094.315552,1061.416138 1093.472656,1057.005249 
	C1092.525024,1052.046753 1088.848022,1048.249512 1084.000000,1049.000000 
"/>
<path fill="none" opacity="1.000000" stroke="#000000" stroke-linecap="round" stroke-linejoin="round" stroke-width="3.000000"
	d="
M819.000000,1041.500000 
	C809.862793,1045.314941 805.017578,1053.250366 807.582092,1060.972778 
	C808.976562,1065.171631 811.714661,1068.789917 816.509033,1069.432739 
	C822.766907,1070.271851 828.569092,1069.074097 832.480103,1063.486084 
	C838.260132,1055.227661 836.017395,1044.589600 828.009705,1041.970337 
	C825.171326,1041.041870 822.326233,1041.787476 819.500000,1041.500000 
"/>
</svg>