<?xml version="1.0" standalone="no"?>
<!DOCTYPE svg PUBLIC "-//W3C//DTD SVG 20010904//EN"
 "http://www.w3.org/TR/2001/REC-SVG-20010904/DTD/svg10.dtd">
<svg version="1.0" xmlns="http://www.w3.org/2000/svg"
 width="666.000000pt" height="666.000000pt" viewBox="0 0 666.000000 666.000000"
 preserveAspectRatio="xMidYMid meet">
<metadata>
Created by potrace 1.14, written by Peter Selinger 2001-2017
</metadata>
<g transform="translate(0.000000,666.000000) scale(0.100000,-0.100000)"
fill="#000000" stroke="none">
<path d="M3179 5118 c-2 -146 -7 -191 -22 -199 -36 -21 -59 -47 -71 -84 -8
-22 -12 -43 -9 -47 2 -5 24 -8 48 -8 l43 0 -3 -72 c-2 -40 -6 -149 -10 -243
-6 -200 -14 -414 -20 -540 -2 -49 -4 -120 -4 -157 l-1 -68 -35 0 c-38 0 -45
-8 -48 -55 -1 -16 -7 -30 -14 -32 -7 -3 -10 14 -9 53 2 50 -1 62 -24 87 -23
26 -33 29 -93 31 -37 1 -72 -1 -79 -5 -6 -4 -12 -35 -12 -76 l-1 -68 -40 -1
c-63 -1 -64 0 -61 87 1 44 -1 84 -5 90 -10 16 -88 18 -100 2 -6 -6 -8 -17 -4
-23 3 -5 -1 -13 -9 -16 -13 -5 -16 -24 -16 -95 l0 -89 -275 0 -275 0 0 45 0
45 -75 0 c-69 0 -76 -2 -85 -22 -7 -18 -8 -14 -6 18 4 46 -2 60 -24 59 -8 -1
-21 3 -28 9 -8 5 -29 9 -48 8 -30 -2 -34 0 -34 22 0 15 -14 36 -38 58 -33 30
-44 34 -87 33 l-50 0 -3 -52 c-2 -38 -9 -58 -27 -78 -23 -24 -25 -33 -25 -137
0 -87 -3 -108 -12 -101 -7 6 -28 10 -45 11 -18 0 -37 1 -41 1 -5 1 -9 52 -10
114 0 61 -1 124 -1 140 -1 27 -1 27 -76 27 -41 0 -76 -3 -76 -7 -4 -20 -6
-1200 -3 -1213 3 -13 34 -15 213 -15 194 0 235 4 218 22 -4 3 -96 7 -205 7
l-197 1 0 588 -1 587 51 0 51 0 -1 -136 c-1 -82 3 -138 9 -142 6 -3 27 -5 46
-3 22 1 41 -3 48 -12 6 -7 22 -13 34 -12 22 2 23 5 26 120 2 109 4 120 28 148
15 17 25 41 24 56 -4 59 -2 62 36 58 44 -5 74 -33 83 -78 6 -32 9 -34 59 -39
28 -3 57 -11 64 -18 9 -9 13 -47 13 -120 l0 -107 30 0 30 0 3 88 c3 87 3 87
30 88 15 1 36 2 47 3 17 1 21 -7 25 -44 l5 -45 300 0 300 0 2 85 c2 47 7 86
13 88 5 2 10 14 10 27 0 23 29 39 47 26 5 -3 8 -40 8 -81 -1 -41 2 -82 6 -90
6 -14 46 -17 141 -11 14 1 16 11 14 66 -1 36 0 69 3 73 4 4 29 8 58 7 76 -1
90 -17 87 -108 -3 -100 6 -111 51 -67 19 19 35 41 34 50 -3 33 2 39 39 42 33
3 37 6 38 33 1 17 5 122 9 235 4 113 8 230 10 260 2 30 6 159 11 285 4 127 8
246 9 265 2 53 -3 60 -46 60 -21 0 -39 5 -39 10 0 22 32 58 60 70 24 10 30 19
31 44 1 69 10 190 14 195 3 2 5 -45 5 -106 l0 -110 37 -24 c21 -13 43 -35 50
-49 12 -25 12 -25 -33 -28 l-46 -3 7 -202 c4 -111 8 -236 10 -277 2 -41 6
-165 10 -275 10 -282 12 -322 18 -332 10 -15 118 1 132 20 7 9 15 17 18 17 4
0 8 -48 9 -107 l3 -106 27 -4 c29 -4 40 15 37 67 -4 61 0 70 30 70 23 0 30 -5
33 -22 2 -17 10 -23 30 -25 15 -1 31 4 35 10 5 7 9 89 9 182 1 94 2 178 3 188
1 14 11 17 61 17 41 0 60 -4 61 -12 0 -7 1 -84 2 -170 1 -86 5 -159 9 -163 4
-4 22 7 40 24 32 30 33 34 33 108 l1 78 72 3 c59 2 72 6 73 20 1 9 2 40 3 67
l1 50 82 1 82 1 0 -123 c-1 -68 2 -127 5 -133 3 -5 23 -8 44 -7 50 4 70 -8 67
-39 -3 -22 1 -25 26 -25 28 0 29 -1 29 -50 l0 -50 45 0 c29 0 45 4 46 13 0 6
1 44 1 84 l1 72 61 3 61 3 1 53 c1 29 4 55 7 59 3 3 25 6 49 7 l43 1 3 48 c3
46 5 48 30 45 l26 -3 2 -145 c1 -80 2 -149 3 -153 0 -4 22 -7 48 -5 l48 3 1
73 c2 60 6 78 24 97 12 12 21 29 20 36 -5 35 1 39 55 39 53 0 55 -1 56 -27 0
-16 1 -89 2 -163 l2 -135 33 -3 32 -3 0 111 0 110 31 28 c30 27 34 27 142 26
62 -1 118 -2 125 -3 9 -1 12 -138 12 -649 l0 -648 -197 -1 c-252 -1 -243 -1
-243 -16 0 -9 50 -12 223 -11 122 1 227 2 233 3 7 1 10 206 10 672 -1 625 -2
672 -18 678 -10 3 -76 5 -147 5 l-129 -2 -34 -31 c-33 -30 -33 -32 -39 -138
-5 -104 -5 -102 -7 54 -2 184 6 171 -99 172 -66 0 -79 -9 -78 -54 1 -11 -8
-32 -20 -46 -17 -20 -20 -37 -18 -87 2 -59 1 -62 -21 -62 -24 0 -24 0 -24 133
0 199 6 179 -54 175 l-53 -3 -3 -47 -3 -48 -50 0 c-54 0 -52 2 -49 -77 l1 -42
-63 -3 -63 -3 0 -83 c0 -77 -1 -83 -20 -80 -17 3 -20 10 -19 46 0 40 -2 44
-28 49 -23 4 -28 11 -28 34 0 28 -1 29 -55 29 l-54 0 -3 132 -3 132 -102 2
c-69 2 -105 -2 -110 -9 -4 -7 -8 -33 -9 -59 -1 -27 -2 -52 -3 -58 0 -6 -31
-10 -70 -10 -46 0 -70 -4 -73 -12 -2 -7 -3 -48 -2 -90 1 -59 -2 -78 -13 -82
-12 -5 -14 9 -13 82 1 48 2 119 1 157 l-1 71 -85 1 c-51 1 -88 -3 -92 -10 -3
-6 -7 -94 -7 -196 -1 -117 -5 -186 -11 -186 -5 0 -10 9 -10 20 0 17 -8 20 -57
23 l-58 3 0 -72 c0 -40 -2 -70 -6 -67 -3 3 -5 55 -6 116 -1 61 -4 116 -8 122
-5 8 -20 1 -46 -22 -48 -43 -101 -50 -108 -15 -3 12 -4 29 -4 37 1 16 -11 354
-17 480 -2 41 -6 168 -10 283 l-7 207 47 0 c46 0 46 0 41 31 -6 40 -31 77 -67
97 -27 16 -29 21 -30 87 -1 62 -4 137 -8 188 -1 12 -10 17 -31 17 l-30 0 -1
-82z m-1304 -1497 c3 -5 2 -12 -3 -15 -5 -3 -9 1 -9 9 0 17 3 19 12 6z m-2
-66 c-3 -9 -8 -14 -10 -11 -3 3 -2 9 2 15 9 16 15 13 8 -4z"/>
<path d="M2905 3013 c-32 -76 -66 -156 -75 -178 -78 -177 -180 -424 -180 -434
0 -8 12 -11 32 -9 31 3 34 6 79 123 l46 120 153 0 153 0 32 -85 c61 -162 59
-160 101 -160 25 0 35 4 31 13 -3 6 -50 122 -104 257 -55 135 -122 300 -149
367 -27 68 -52 123 -55 123 -4 0 -33 -62 -64 -137z m104 -109 c16 -44 41 -107
55 -142 l25 -62 -125 1 c-69 0 -124 5 -124 10 0 5 4 17 9 27 8 15 76 180 102
249 13 34 16 29 58 -83z"/>
<path d="M1729 3130 c-1 -3 -2 -171 -3 -373 l-1 -368 135 2 c206 3 288 30 359
116 65 78 92 222 69 360 -24 138 -128 241 -263 258 -63 8 -295 12 -296 5z
m323 -70 c62 -17 131 -91 152 -163 53 -183 -5 -371 -132 -424 -41 -17 -271
-31 -273 -17 -6 40 -4 593 2 605 7 13 24 16 108 13 54 -1 119 -8 143 -14z"/>
<path d="M3737 3132 c-16 -3 -17 -33 -17 -373 l0 -369 35 0 35 0 0 174 c0 147
2 175 15 180 19 7 14 12 164 -191 l120 -163 41 0 41 0 -22 33 c-13 17 -72 96
-131 174 l-109 142 28 6 c103 23 153 77 158 171 6 117 -47 188 -156 209 -40 7
-175 12 -202 7z m223 -80 c43 -21 60 -53 60 -114 0 -100 -30 -126 -149 -135
l-81 -5 0 136 0 136 68 0 c44 0 79 -6 102 -18z"/>
<path d="M4567 3132 c-11 -2 -17 -13 -17 -33 l0 -29 104 0 103 0 -1 -331 c-1
-182 2 -335 5 -341 3 -5 19 -8 35 -6 l29 3 1 320 c1 176 2 328 3 338 1 15 13
17 99 17 l99 0 1 33 1 32 -223 0 c-122 0 -230 -1 -239 -3z"/>
<path d="M2442 2474 c-40 -28 -24 -79 27 -89 49 -9 75 62 34 93 -22 16 -34 15
-61 -4z"/>
<path d="M3416 2474 c-18 -17 -21 -51 -7 -73 11 -18 71 -17 82 1 23 35 -2 88
-41 88 -10 0 -26 -7 -34 -16z"/>
<path d="M4320 2470 c-11 -11 -20 -24 -20 -29 0 -23 15 -43 37 -52 50 -19 88
31 59 76 -20 30 -49 32 -76 5z"/>
<path d="M1959 2181 c-5 -44 -3 -144 4 -148 8 -5 8 -6 10 80 1 38 -1 71 -5 74
-5 2 -9 -1 -9 -6z"/>
<path d="M3119 2180 c-1 -8 -1 -27 -1 -42 1 -24 -2 -27 -18 -18 -24 13 -26 13
-44 -6 -36 -35 2 -106 44 -84 10 5 20 6 24 3 7 -8 8 -4 11 72 1 33 -2 67 -6
75 -8 13 -9 13 -10 0z m-8 -91 c8 -17 8 -24 -3 -36 -19 -19 -48 -6 -48 21 0
41 32 50 51 15z"/>
<path d="M1257 2174 c-4 -4 -7 -38 -7 -76 l0 -68 39 0 c48 0 80 25 83 65 1 24
-15 73 -25 76 -29 6 -84 8 -90 3z m83 -29 c7 -8 13 -26 13 -40 0 -35 -20 -55
-54 -55 -28 0 -29 1 -29 55 0 54 1 55 29 55 16 0 34 -7 41 -15z"/>
<path d="M2046 2171 c-3 -5 1 -11 9 -15 8 -3 15 -1 15 4 0 13 -18 22 -24 11z"/>
<path d="M2230 2164 c0 -8 5 -12 10 -9 6 3 10 10 10 16 0 5 -4 9 -10 9 -5 0
-10 -7 -10 -16z"/>
<path d="M3310 2106 c0 -43 4 -76 10 -76 5 0 8 14 6 30 -4 38 1 38 35 -2 15
-18 30 -30 33 -27 4 4 -5 20 -19 37 -25 30 -25 31 -5 37 12 4 20 15 20 29 0
28 -15 41 -52 45 l-28 2 0 -75z m60 35 c0 -10 -7 -22 -16 -25 -22 -8 -21 -9
-26 19 -4 21 -1 25 18 25 17 0 24 -6 24 -19z"/>
<path d="M4300 2164 c0 -8 5 -12 10 -9 6 3 10 10 10 16 0 5 -4 9 -10 9 -5 0
-10 -7 -10 -16z"/>
<path d="M4790 2170 c0 -5 9 -10 20 -10 18 0 20 -7 20 -65 0 -37 4 -65 10 -65
6 0 10 28 10 65 0 58 2 65 20 65 11 0 20 4 20 8 0 5 -22 10 -50 11 -28 1 -50
-3 -50 -9z"/>
<path d="M2140 2141 c0 -11 -6 -22 -12 -24 -10 -4 -10 -6 0 -6 7 -1 12 -16 12
-43 0 -23 3 -38 8 -34 9 9 15 72 10 111 -2 22 -18 18 -18 -4z"/>
<path d="M4210 2143 c0 -12 -6 -24 -12 -26 -10 -4 -10 -6 0 -6 7 -1 12 -16 12
-42 0 -22 4 -38 9 -34 9 5 10 19 12 89 0 10 -5 24 -10 29 -8 8 -11 5 -11 -10z"/>
<path d="M1450 2110 c-23 -23 -25 -39 -7 -64 15 -20 68 -19 75 2 3 11 1 11
-17 0 -18 -11 -23 -10 -38 5 -19 18 -13 21 35 17 28 -2 31 35 3 50 -26 13 -28
13 -51 -10z m50 -14 c0 -9 -8 -12 -25 -8 -28 5 -24 22 6 22 10 0 19 -6 19 -14z"/>
<path d="M1610 2121 c-21 -5 -25 -11 -23 -41 2 -54 3 -56 12 -41 5 7 7 21 5
30 -6 23 11 45 30 38 10 -4 16 -19 16 -42 0 -19 4 -35 10 -35 5 0 7 13 5 28
-4 36 8 57 29 49 10 -4 16 -19 16 -42 0 -19 4 -35 9 -35 5 0 9 18 9 40 1 43
-22 66 -48 50 -8 -5 -21 -5 -29 -1 -9 4 -27 5 -41 2z"/>
<path d="M1820 2117 c-32 -16 -34 -63 -5 -83 31 -20 70 2 70 40 0 39 -31 60
-65 43z m48 -38 c4 -30 -22 -46 -44 -28 -17 14 -18 46 -1 52 25 11 42 1 45
-24z"/>
<path d="M2342 2123 c-39 -14 -31 -86 10 -97 27 -7 70 36 61 61 -10 28 -44 45
-71 36z m48 -32 c7 -15 6 -24 -6 -36 -19 -18 -33 -16 -48 7 -7 12 -6 21 3 32
18 22 38 20 51 -3z"/>
<path d="M2498 2123 c-14 -3 -18 -15 -18 -49 0 -24 4 -44 9 -44 4 0 8 10 8 23
1 50 3 57 23 57 20 0 22 -5 24 -45 1 -11 6 -20 11 -20 8 0 11 63 3 70 -8 7
-45 12 -60 8z"/>
<path d="M2752 2119 c-16 -6 -22 -17 -22 -40 0 -38 22 -57 61 -51 27 4 29 8
29 47 0 37 -3 43 -23 47 -13 3 -34 1 -45 -3z m47 -28 c14 -24 -8 -55 -32 -45
-17 6 -24 44 -10 57 12 13 32 7 42 -12z"/>
<path d="M2890 2081 c0 -59 17 -70 22 -13 2 29 7 37 23 37 16 0 21 -8 23 -37
2 -21 8 -38 13 -38 15 0 4 81 -12 91 -18 12 -26 11 -34 -1 -5 -8 -11 -7 -21 1
-12 10 -14 3 -14 -40z"/>
<path d="M3466 2111 c-19 -21 -21 -52 -4 -69 17 -17 65 -15 72 3 6 17 -5 20
-20 5 -12 -12 -44 -3 -44 11 0 5 16 9 35 9 21 0 35 5 35 13 -1 38 -49 56 -74
28z m51 -18 c2 -6 -3 -10 -14 -8 -10 2 -22 4 -26 4 -5 1 -5 6 -2 12 9 13 37 8
42 -8z"/>
<path d="M3601 2080 c-1 -58 16 -68 21 -12 2 29 7 37 23 37 16 0 21 -8 23 -37
2 -21 7 -38 13 -38 14 0 11 78 -3 87 -19 11 -37 12 -44 2 -4 -6 -11 -6 -19 1
-10 8 -13 0 -14 -40z"/>
<path d="M3783 2120 c-47 -19 -36 -90 15 -90 51 0 71 50 34 83 -21 19 -19 19
-49 7z m45 -41 c4 -30 -22 -46 -44 -28 -17 14 -18 46 -1 52 25 11 42 1 45 -24z"/>
<path d="M4057 2112 c-22 -25 -21 -48 3 -72 15 -15 25 -18 38 -12 9 5 22 8 28
5 6 -2 10 14 10 41 0 34 -3 44 -15 44 -9 0 -23 2 -32 6 -9 4 -22 -1 -32 -12z
m57 -25 c16 -25 -16 -56 -38 -37 -19 15 -21 46 -3 53 18 8 29 3 41 -16z"/>
<path d="M4414 2120 c-28 -11 -36 -34 -24 -66 8 -21 15 -25 41 -22 19 2 38 12
46 24 12 18 11 24 -8 47 -22 29 -24 30 -55 17z m44 -41 c4 -30 -22 -46 -44
-28 -17 14 -18 31 -2 47 19 19 43 9 46 -19z"/>
<path d="M4573 2123 c-19 -4 -23 -11 -23 -39 0 -19 0 -36 0 -39 0 -3 3 -5 7
-5 4 0 8 12 9 27 2 42 3 43 24 43 20 0 24 -11 22 -57 -1 -13 3 -23 8 -23 14 0
12 74 -2 88 -7 7 -14 11 -17 11 -4 -1 -16 -4 -28 -6z"/>
<path d="M4944 2119 c-26 -9 -36 -50 -18 -73 15 -21 65 -18 72 4 5 13 3 13
-11 1 -18 -14 -47 -9 -47 9 0 5 13 10 28 10 36 0 44 8 32 30 -12 23 -30 29
-56 19z m37 -24 c-1 -10 -20 -14 -34 -7 -4 2 -5 8 -1 13 7 13 35 8 35 -6z"/>
<path d="M5077 2112 c-9 -10 -17 -28 -17 -40 0 -28 37 -54 60 -42 10 5 20 6
24 3 7 -7 8 -3 10 49 1 27 -2 36 -14 36 -8 0 -22 2 -31 6 -9 4 -22 -1 -32 -12z
m57 -25 c8 -12 7 -21 -5 -32 -21 -21 -49 -9 -49 20 0 36 34 44 54 12z"/>
<path d="M5250 2121 c-22 -5 -25 -12 -26 -48 -1 -53 14 -57 18 -5 2 29 7 37
23 37 16 0 21 -8 23 -37 2 -21 7 -38 11 -38 5 0 7 13 6 29 -3 37 8 56 29 48
10 -4 16 -19 16 -42 0 -19 5 -35 10 -35 6 0 10 18 10 40 0 44 -23 65 -52 49
-11 -6 -19 -6 -23 1 -7 11 -7 11 -45 1z"/>
<path d="M2049 2103 c0 -10 -2 -28 -3 -41 -2 -20 12 -45 15 -25 6 44 5 74 -2
79 -5 3 -9 -3 -10 -13z"/>
<path d="M2230 2075 c0 -25 5 -45 10 -45 6 0 10 20 10 45 0 25 -4 45 -10 45
-5 0 -10 -20 -10 -45z"/>
<path d="M3921 2078 c12 -24 23 -44 24 -46 2 -2 11 14 21 35 9 21 19 41 21 46
2 4 -1 7 -7 7 -6 0 -16 -14 -22 -31 l-11 -31 -13 31 c-7 17 -18 31 -24 31 -6
0 -1 -19 11 -42z"/>
<path d="M4300 2075 c0 -25 5 -45 10 -45 7 0 10 19 9 45 -2 25 -6 45 -11 45
-4 0 -8 -20 -8 -45z"/>
<path d="M2720 1742 c-41 -14 -53 -74 -19 -95 23 -15 69 0 78 26 16 42 -19 83
-59 69z m45 -46 c0 -36 -27 -56 -52 -40 -40 25 -20 77 26 72 21 -2 26 -8 26
-32z"/>
<path d="M3315 1740 c-3 -5 -1 -10 4 -10 6 0 11 5 11 10 0 6 -2 10 -4 10 -3 0
-8 -4 -11 -10z"/>
<path d="M3475 1742 c-31 -7 -45 -22 -45 -51 0 -45 41 -66 80 -41 10 6 3 8
-22 3 -34 -5 -38 -3 -43 20 -4 14 -4 31 0 37 11 18 49 29 63 17 7 -5 15 -7 18
-4 9 9 -30 24 -51 19z"/>
<path d="M2395 1695 c-15 -25 -25 -49 -21 -52 3 -4 6 -1 6 5 0 6 9 16 20 22
15 8 23 6 40 -12 l20 -22 -16 50 c-9 27 -18 50 -20 52 -1 2 -14 -17 -29 -43z
m35 -4 c0 -4 -6 -8 -14 -8 -8 0 -12 6 -9 14 5 13 23 9 23 -6z"/>
<path d="M3000 1715 c-1 -16 -3 -39 -5 -50 -3 -16 2 -21 22 -23 33 -3 53 14
53 44 0 23 -30 41 -49 30 -5 -4 -12 2 -14 11 -3 11 -5 6 -7 -12z m58 -29 c4
-19 -13 -36 -35 -36 -14 0 -18 42 -6 54 12 12 38 1 41 -18z"/>
<path d="M2830 1701 c0 -16 -3 -38 -7 -48 -3 -10 -3 -15 2 -11 11 11 24 88 14
88 -5 0 -9 -13 -9 -29z"/>
<path d="M2506 1696 c-11 -41 -5 -62 7 -26 12 36 42 49 42 18 0 -9 4 -20 8
-24 4 -4 7 5 7 19 0 15 -3 28 -7 28 -42 7 -52 4 -57 -15z"/>
<path d="M2941 1703 c-4 -58 -37 -74 -44 -20 l-4 32 -1 -33 c-1 -22 3 -35 14
-39 24 -9 46 20 41 53 -3 20 -4 22 -6 7z"/>
<path d="M3127 1713 c-11 -10 -8 -61 3 -68 21 -13 48 6 52 35 3 17 1 30 -3 30
-4 0 -9 -12 -11 -27 -2 -17 -10 -29 -21 -31 -15 -3 -17 2 -14 32 4 38 4 40 -6
29z"/>
<path d="M3233 1703 c-4 -9 -1 -19 5 -21 7 -2 12 -11 12 -19 0 -10 -6 -13 -16
-9 -8 3 -12 2 -9 -4 3 -6 13 -10 21 -10 16 0 19 36 4 45 -16 10 -11 28 6 21 8
-3 12 -2 9 4 -9 15 -25 12 -32 -7z"/>
<path d="M3576 1698 c-26 -37 4 -69 48 -52 35 13 15 74 -24 74 -5 0 -16 -10
-24 -22z m49 -18 c0 -18 -6 -26 -22 -28 -18 -3 -23 1 -23 21 0 28 9 39 30 35
9 -2 15 -14 15 -28z"/>
<path d="M3688 1679 c-4 -42 8 -40 14 1 5 41 33 32 31 -10 l-2 -35 13 35 c7
19 19 35 27 35 10 0 13 -11 12 -35 l-2 -35 11 33 c6 18 8 35 5 39 -4 3 -29 7
-56 8 l-49 2 -4 -38z"/>
<path d="M3850 1706 c-1 -6 -3 -29 -5 -51 -2 -22 -2 -33 1 -24 3 11 12 15 25
12 26 -7 58 23 52 48 -6 21 -6 21 -45 24 -16 1 -28 -3 -28 -9z m55 -26 c0 -18
-6 -26 -22 -28 -18 -3 -23 1 -23 21 0 28 9 39 30 35 9 -2 15 -14 15 -28z"/>
<path d="M3975 1700 c-21 -23 -11 -28 12 -5 19 20 37 14 41 -12 2 -15 -4 -23
-19 -28 -14 -5 -25 -3 -27 4 -2 6 -8 11 -14 11 -6 0 -5 -6 2 -16 8 -8 25 -14
39 -12 22 3 26 8 26 38 0 28 -4 36 -21 38 -11 2 -28 -6 -39 -18z"/>
<path d="M4089 1695 c0 -11 -2 -28 -4 -38 -2 -9 1 -15 6 -11 5 3 9 16 9 29 0
19 16 35 36 35 2 0 4 -17 5 -37 1 -33 2 -35 8 -13 11 34 -2 55 -33 55 -19 1
-26 -4 -27 -20z"/>
<path d="M4241 1693 l-13 -28 -14 25 c-16 30 -18 22 -4 -16 7 -19 7 -30 -1
-40 -7 -9 -8 -14 -1 -14 11 0 57 88 50 96 -3 2 -10 -8 -17 -23z"/>
<path d="M3311 1693 c0 -12 -4 -30 -7 -40 -5 -17 -5 -17 6 0 6 10 9 28 7 40
-4 22 -4 22 -6 0z"/>
</g>
</svg>
